<svg aria-hidden="true" style="position: absolute; width: 0; height: 0; overflow: hidden;" version="1.1" xmlns="http://www.w3.org/2000/svg" xmlns:xlink="http://www.w3.org/1999/xlink">
<defs>
<symbol id="icon-instagram" viewBox="0 0 32 32">
<path fill="#000" style="fill: var(--color1, #000)" d="M2 2.177c-2.515 2.612-2 5.387-2 13.816 0 7-1.221 14.017 5.171 15.669 1.996 0.513 19.681 0.513 21.675-0.003 2.661-0.687 4.827-2.845 5.123-6.609 0.041-0.525 0.041-17.58-0.001-18.116-0.315-4.009-2.783-6.32-6.035-6.788-0.745-0.108-0.895-0.14-4.719-0.147-13.564 0.007-16.537-0.597-19.213 2.177z"></path>
<path fill="#fff" style="fill: var(--color2, #fff)" d="M15.997 4.185c-4.841 0-9.439-0.431-11.195 4.076-0.725 1.861-0.62 4.279-0.62 7.74 0 3.037-0.097 5.892 0.62 7.739 1.752 4.509 6.387 4.077 11.192 4.077 4.636 0 9.416 0.483 11.193-4.077 0.727-1.88 0.62-4.261 0.62-7.739 0-4.616 0.255-7.596-1.984-9.833-2.267-2.267-5.332-1.983-9.832-1.983h0.005zM14.939 6.315c10.099-0.016 11.384-1.139 10.675 14.457-0.252 5.516-4.452 4.911-9.615 4.911-9.413 0-9.684-0.269-9.684-9.687 0-9.527 0.747-9.676 8.624-9.684v0.003zM22.304 8.276c-0.783 0-1.417 0.635-1.417 1.417s0.635 1.417 1.417 1.417c0.783 0 1.417-0.635 1.417-1.417s-0.635-1.417-1.417-1.417zM15.997 9.933c-3.351 0-6.067 2.717-6.067 6.068s2.716 6.067 6.067 6.067c3.351 0 6.065-2.716 6.065-6.067s-2.715-6.068-6.065-6.068zM15.997 12.063c5.207 0 5.213 7.877 0 7.877-5.205 0-5.213-7.877 0-7.877z"></path>
</symbol>
<symbol id="icon-whatsapp" viewBox="0 0 32 32">
<path fill="#eceff1" style="fill: var(--color3, #eceff1)" d="M27.36 4.598c-3.040-2.939-7.040-4.598-11.3-4.598-12.226 0-19.904 13.247-13.798 23.783l-2.261 8.217 8.447-2.203c3.68 1.988 6.694 1.812 7.621 1.93 14.177 0 21.234-17.152 11.271-27.076l0.020-0.052z"></path>
<path fill="#4caf50" style="fill: var(--color4, #4caf50)" d="M16.090 29.002l-0.009-0.002h-0.021c-4.242 0-6.953-2.009-7.219-2.125l-5.001 1.3 1.34-4.86-0.318-0.501c-1.268-1.987-2.021-4.409-2.021-7.008 0-0.002 0-0.003 0-0.005v0c0-11.725 14.325-17.587 22.617-9.3 8.271 8.201 2.464 22.5-9.367 22.5z"></path>
<path fill="#fafafa" style="fill: var(--color5, #fafafa)" d="M23.343 19.076l-0.013 0.099c-0.401-0.199-2.355-1.155-2.72-1.287-0.817-0.303-0.587-0.048-2.155 1.749-0.235 0.26-0.466 0.279-0.862 0.1-0.4-0.201-1.684-0.621-3.204-1.981-1.184-1.059-1.979-2.359-2.213-2.759-0.39-0.675 0.427-0.771 1.171-2.179 0.132-0.279 0.064-0.499-0.034-0.698-0.1-0.201-0.896-2.16-1.229-2.942-0.32-0.779-0.65-0.681-0.896-0.681-0.768-0.066-1.33-0.055-1.824 0.459-2.153 2.366-1.61 4.805 0.231 7.401 3.619 4.736 5.547 5.609 9.072 6.818 0.953 0.303 1.82 0.26 2.507 0.162 0.766-0.122 2.356-0.962 2.688-1.902 0.34-0.94 0.34-1.719 0.24-1.9-0.098-0.18-0.359-0.281-0.759-0.46z"></path>
</symbol>
<symbol id="icon-water-drop" viewBox="0 0 32 32">
<path fill="#ff5c00" style="fill: var(--color6, #ff5c00)" d="M18.737 7.011c-0.554-0.63-1.216-1.404-1.867-2.187l-0.156-0.192c-0.030-0.059-0.090-0.089-0.119-0.119-0.327-0.268-0.803-0.208-1.071 0.119-0.807 0.975-1.469 1.75-2.14 2.516l0.117-0.136c-0.179 0.208-0.357 0.387-0.506 0.595-0.803-1.101-1.725-2.172-2.528-3.094-0.447-0.506-0.863-0.981-1.131-1.339-0.030-0.060-0.090-0.089-0.119-0.119-0.327-0.268-0.803-0.208-1.071 0.119-0.297 0.357-0.714 0.833-1.16 1.369-2.023 2.291-4.789 5.503-4.789 8.27 0 1.815 0.743 3.421 1.904 4.611 0.476 0.476 1.011 0.863 1.606 1.19-0.089 0.327-0.178 0.625-0.238 0.952-0.113 0.483-0.178 1.037-0.178 1.606v0c0 3.005 1.22 5.712 3.183 7.646 1.963 1.963 4.67 3.183 7.645 3.183s5.712-1.22 7.646-3.183c1.963-1.964 3.183-4.671 3.183-7.646 0-4.641-4.76-10.144-8.211-14.16zM5.141 16.412c-0.9-0.909-1.456-2.159-1.458-3.54v-0c0.030-2.261 2.588-5.236 4.433-7.378 0.208-0.238 0.416-0.476 0.595-0.684 0.179 0.238 0.387 0.446 0.595 0.684 0.952 1.1 2.082 2.41 2.975 3.748 0.416 0.654 0.803 1.279 1.041 1.904v0.030c0.059 0.148 0.119 0.268 0.149 0.416 0 0.030 0 0.060 0.030 0.090l0.089 0.357c0 0.059 0.030 0.118 0.030 0.178 0.029 0.089 0.029 0.178 0.059 0.238 0.030 0.149 0.030 0.268 0.030 0.417 0 0.863-0.208 1.666-0.595 2.38-0.259 0.439-0.544 0.819-0.866 1.164l0.003-0.004c-0.327 0.327-0.744 0.625-1.16 0.862-0.681 0.375-1.492 0.595-2.354 0.595-0.009 0-0.018-0-0.027-0h0.001c-0.179 0-0.327 0-0.506-0.030h-0.060c-0.149-0.030-0.297-0.030-0.446-0.059-0.030 0-0.060 0-0.090-0.030-0.119-0.030-0.268-0.060-0.387-0.090-0.030 0-0.059-0.029-0.089-0.029-0.782-0.256-1.45-0.675-1.993-1.22l-0-0zM22.634 27.746c-1.696 1.696-4.016 2.737-6.574 2.737-2.588 0-4.909-1.041-6.575-2.737s-2.707-4.016-2.707-6.575c0-0.416 0.059-0.862 0.148-1.309l0.179-0.714c0.060 0 0.119 0.030 0.149 0.030 0.059 0.030 0.149 0.030 0.208 0.060h0.030c0.060 0 0.149 0.030 0.208 0.030 0.119 0.029 0.238 0.029 0.357 0.059 0.208 0.030 0.416 0.030 0.625 0.030 1.815 0 3.421-0.744 4.611-1.904 0.149-0.149 0.298-0.298 0.417-0.476 0.923-1.131 1.487-2.558 1.487-4.135 0-0.178 0-0.357-0.030-0.535 0-0.089-0.029-0.149-0.029-0.238-0.030-0.089-0.030-0.208-0.060-0.298-0.030-0.119-0.060-0.208-0.089-0.327-0.030-0.090-0.030-0.149-0.060-0.238-0.030-0.119-0.089-0.238-0.149-0.387-0.030-0.059-0.030-0.119-0.059-0.178 0.029 0 0.029-0.030 0-0.060-0.282-0.657-0.58-1.214-0.921-1.742l0.028 0.046c0.268-0.327 0.535-0.624 0.773-0.892 0.536-0.595 1.012-1.19 1.458-1.725 0.446 0.535 0.952 1.101 1.458 1.725 3.302 3.808 7.854 9.074 7.854 13.179 0 2.588-1.042 4.909-2.737 6.575zM29.804 6.386l-0.003-0.005c-0.065-1.749-2.252-4.377-3.54-5.852l-0.146-0.241c-0.030-0.030-0.060-0.089-0.119-0.119-0.327-0.268-0.803-0.208-1.071 0.119-0.149 0.208-0.417 0.506-0.684 0.833-1.25 1.458-3.005 3.481-3.005 5.266 0 1.19 0.476 2.261 1.25 3.035 0.773 0.772 1.84 1.249 3.018 1.249 0.006 0 0.012 0 0.018-0h-0.001c1.189 0 2.261-0.476 3.034-1.25 0.759-0.76 1.233-1.804 1.248-2.96l0-0.003 0.002 0.003-0.001-0.028 0.001-0.046zM27.483 8.349c-0.506 0.506-1.19 0.803-1.963 0.803s-1.458-0.298-1.964-0.803-0.803-1.19-0.803-1.963c0-1.25 1.517-3.005 2.618-4.284l0.149-0.179 0.148 0.179c1.101 1.279 2.618 3.034 2.618 4.284 0 0.773-0.298 1.458-0.803 1.963z"></path>
</symbol>
<symbol id="icon-washing-machine-3" viewBox="0 0 32 32">
<path fill="#ff5c00" style="fill: var(--color6, #ff5c00)" d="M31.214 3.825c-0.046-0.008-0.099-0.013-0.153-0.013-0.464 0-0.849 0.337-0.924 0.78l-0.001 0.005-0.552 3.361c-1.831-0.85-3.95-0.612-5.624 0.727-1.35 1.081-3.165 1.081-4.516 0-1.004-0.803-2.179-1.227-3.398-1.227s-2.395 0.424-3.398 1.227c-1.351 1.081-3.166 1.081-4.516 0-1.71-1.368-3.861-1.589-5.711-0.688l-0.559-3.401c-0.076-0.448-0.461-0.786-0.925-0.786-0.518 0-0.938 0.42-0.938 0.938 0 0.054 0.004 0.106 0.013 0.158l-0.001-0.006 3.193 19.436c0.41 2.203 2.318 3.849 4.61 3.849 0.001 0 0.002 0 0.002 0h16.365c0 0 0.001 0 0.002 0 2.292 0 4.2-1.646 4.606-3.82l0.005-0.029 0.003-0.016 3.19-19.42c0.008-0.046 0.012-0.098 0.012-0.152 0-0.464-0.337-0.85-0.78-0.924l-0.006-0.001zM26.949 24.011c-0.249 1.318-1.392 2.302-2.764 2.302-0.001 0-0.001 0-0.002 0h-16.366c-0 0-0.001 0-0.002 0-1.372 0-2.515-0.984-2.761-2.284l-0.003-0.017-2.306-14.036c1.317-0.907 2.926-0.854 4.215 0.177 2.053 1.643 4.81 1.638 6.859 0 1.353-1.083 3.101-1.083 4.453 0 2.054 1.643 4.811 1.638 6.859 0 1.255-1.004 2.83-1.078 4.131-0.233l-2.315 14.092z"></path>
</symbol>
<symbol id="icon-washing-machine-2" viewBox="0 0 32 32">
<path fill="#ff5c00" style="fill: var(--color6, #ff5c00)" d="M27.314 4.686c-3.022-3.022-7.040-4.686-11.314-4.686s-8.292 1.664-11.314 4.686c-3.022 3.022-4.686 7.040-4.686 11.314s1.664 8.292 4.686 11.314c3.022 3.022 7.040 4.686 11.314 4.686s8.292-1.664 11.314-4.686c3.022-3.022 4.686-7.040 4.686-11.314s-1.664-8.292-4.686-11.314zM26.651 26.651c-2.845 2.845-6.627 4.412-10.651 4.412s-7.806-1.567-10.651-4.412c-2.845-2.845-4.412-6.627-4.412-10.651s1.566-7.806 4.412-10.651c2.845-2.845 6.627-4.412 10.651-4.412s7.806 1.566 10.651 4.412c2.845 2.845 4.412 6.627 4.412 10.651s-1.567 7.806-4.412 10.651z"></path>
<path fill="#ff5c00" style="fill: var(--color6, #ff5c00)" d="M16 3.006c-7.165 0-12.994 5.829-12.994 12.994s5.829 12.994 12.994 12.994c7.165 0 12.994-5.829 12.994-12.994s-5.829-12.994-12.994-12.994zM16 28.057c-6.648 0-12.057-5.409-12.057-12.057s5.409-12.057 12.057-12.057c4.905 0 9.133 2.944 11.015 7.157l-1.088 0.181c-0.658-1.359-1.531-2.511-2.588-3.463l-0.010-0.009c-0.083-0.074-0.192-0.12-0.313-0.12-0.259 0-0.469 0.21-0.469 0.469 0 0.139 0.060 0.263 0.156 0.349l0 0c0.944 0.85 1.721 1.862 2.292 2.997l0.027 0.058c-0.586 0.347-0.973 0.977-0.973 1.697 0 0.002 0 0.003 0 0.005v-0 2.58c-0.245 0.103-0.561 0.188-1.037 0.188-0.753 0-1.109-0.204-1.522-0.439-0.462-0.264-0.986-0.563-1.987-0.563s-1.525 0.299-1.986 0.563c-0.413 0.236-0.769 0.439-1.521 0.439s-1.108-0.204-1.52-0.439c-0.461-0.263-0.984-0.563-1.984-0.563-1.002 0-1.525 0.299-1.986 0.563-0.137 0.083-0.227 0.232-0.227 0.402 0 0.259 0.21 0.469 0.469 0.469 0.082 0 0.159-0.021 0.226-0.058l-0.002 0.001c0.412-0.236 0.769-0.439 1.521-0.439s1.107 0.203 1.519 0.439c0.461 0.264 0.984 0.563 1.985 0.563 1.002 0 1.525-0.299 1.987-0.563 0.412-0.236 0.769-0.439 1.521-0.439s1.109 0.203 1.522 0.439c0.462 0.264 0.986 0.563 1.987 0.563 0.419 0 0.756-0.053 1.037-0.133v1.899c0 0.72 0.384 1.357 0.974 1.702-1.679 3.352-5.086 5.613-9.022 5.617h-0c-5.543 0-10.052-4.51-10.052-10.053 0.452 0.066 0.736 0.227 1.051 0.407 0.462 0.264 0.985 0.563 1.986 0.563 0.252-0.009 0.453-0.215 0.453-0.469s-0.201-0.46-0.452-0.468l-0.001-0c-0.752 0-1.108-0.204-1.52-0.439-0.375-0.214-0.791-0.452-1.472-0.533 0.476-5.104 4.782-9.112 10.008-9.112 1.866 0 3.686 0.514 5.266 1.488 0.070 0.044 0.155 0.070 0.246 0.070 0.259 0 0.469-0.21 0.469-0.469 0-0.168-0.088-0.315-0.221-0.398l-0.002-0.001c-1.635-1.022-3.621-1.628-5.749-1.628-0.003 0-0.006 0-0.009 0h0c-6.060 0-10.99 4.93-10.99 10.99s4.93 10.99 10.99 10.99c4.245 0 8.11-2.452 9.927-6.271l1.088 0.181c-1.883 4.213-6.111 7.157-11.015 7.157zM25.85 19.755c-0.493-0.083-0.864-0.507-0.864-1.017 0-0.001 0-0.002 0-0.003v0-5.469c0-0.507 0.363-0.937 0.864-1.020l1.52-0.254c0.435 1.192 0.687 2.568 0.687 4.002 0 0.002 0 0.004 0 0.007v-0c0 1.405-0.243 2.754-0.686 4.009l-1.521-0.253z"></path>
<path fill="#ff5c00" style="fill: var(--color6, #ff5c00)" d="M13.996 11.022c-0.812 0.001-1.47 0.659-1.47 1.471v0c0.001 0.812 0.659 1.47 1.471 1.471h0c0.812-0.001 1.47-0.659 1.47-1.471v-0c-0.001-0.812-0.659-1.47-1.471-1.471h-0zM13.996 13.026c-0.284-0.013-0.51-0.247-0.51-0.533s0.226-0.52 0.509-0.533l0.001-0c0.284 0.013 0.51 0.247 0.51 0.533s-0.226 0.52-0.509 0.533l-0.001 0zM17.503 8.517c-0.535 0.001-0.969 0.434-0.97 0.97v0c0.001 0.535 0.434 0.969 0.97 0.97h0c0.535-0.001 0.969-0.434 0.97-0.97v-0c-0.001-0.535-0.434-0.969-0.97-0.97h-0zM19.757 11.523c-0.397 0.001-0.718 0.322-0.719 0.719v0c0 0 0 0 0 0 0 0.397 0.322 0.719 0.719 0.72h0c0.397-0 0.719-0.323 0.719-0.72v0c-0.001-0.397-0.322-0.719-0.719-0.719h-0z"></path>
</symbol>
<symbol id="icon-warning-1" viewBox="0 0 32 32">
<path fill="#ff5c00" style="fill: var(--color6, #ff5c00)" d="M31.636 22.849c-0.183-0.477-0.638-0.809-1.17-0.809-0.69 0-1.25 0.56-1.25 1.25 0 0.175 0.036 0.342 0.101 0.494l-0.003-0.008c0.325 0.815 0.219 1.746-0.285 2.49-0.48 0.711-1.282 1.172-2.192 1.172-0.008 0-0.016-0-0.024-0h-21.62c-0.006 0-0.012 0-0.019 0-0.996 0-1.864-0.55-2.316-1.363l-0.007-0.014c-0.217-0.377-0.346-0.828-0.346-1.31 0-0.523 0.151-1.011 0.413-1.422l-0.006 0.011 10.811-17.503c0.477-0.768 1.315-1.273 2.272-1.273 0.003 0 0.006 0 0.010 0h-0c0.937 0 1.789 0.476 2.281 1.273l7.996 12.946c0.224 0.358 0.616 0.593 1.063 0.593 0.69 0 1.25-0.56 1.25-1.25 0-0.243-0.069-0.47-0.19-0.662l0.003 0.005-7.996-12.946c-0.921-1.485-2.542-2.459-4.39-2.459-0.006 0-0.013 0-0.019 0h0.001c-0.005-0-0.011-0-0.018-0-1.848 0-3.469 0.974-4.377 2.437l-0.013 0.022-10.811 17.504c-1.003 1.622-1.046 3.586-0.117 5.252 0.929 1.664 2.62 2.658 4.525 2.658h21.621c1.747 0 3.308-0.827 4.285-2.269 0.97-1.431 1.171-3.232 0.538-4.819z"></path>
<path fill="#ff5c00" style="fill: var(--color6, #ff5c00)" d="M16.003 24.999c0.69 0 1.25-0.56 1.25-1.25s-0.56-1.25-1.25-1.25v0h-0.001c-0.69 0-1.25 0.56-1.25 1.25s0.56 1.25 1.25 1.25v0zM17.252 19.375v-9.187c0-0.69-0.56-1.25-1.25-1.25s-1.25 0.56-1.25 1.25v9.187c0 0.69 0.56 1.25 1.25 1.25s1.25-0.56 1.25-1.25v0z"></path>
</symbol>
<symbol id="icon-vkontakte" viewBox="0 0 32 32">
<path fill="#4d76a1" style="fill: var(--color7, #4d76a1)" d="M16 32c8.836 0 16-7.164 16-16s-7.164-16-16-16-16 7.164-16 16 7.164 16 16 16z"></path>
<path fill="#fff" style="fill: var(--color2, #fff)" d="M15.395 23.018h1.256s0.38-0.042 0.574-0.25c0.178-0.192 0.172-0.552 0.172-0.552s-0.024-1.685 0.758-1.933c0.77-0.245 1.76 1.629 2.809 2.348 0.794 0.545 1.397 0.426 1.397 0.426l2.805-0.039s1.468-0.090 0.772-1.245c-0.057-0.095-0.405-0.854-2.086-2.414-1.76-1.633-1.524-1.368 0.596-4.193 1.29-1.72 1.805-2.77 1.644-3.22-0.154-0.428-1.103-0.316-1.103-0.316l-3.158 0.020s-0.234-0.032-0.408 0.072c-0.17 0.103-0.279 0.34-0.279 0.34s-0.5 1.331-1.166 2.463c-1.407 2.389-1.97 2.515-2.199 2.366-0.534-0.345-0.401-1.388-0.401-2.13 0-2.314 0.351-3.279-0.684-3.53-0.343-0.083-0.596-0.137-1.474-0.146-1.128-0.011-2.081 0.003-2.622 0.268-0.359 0.177-0.637 0.567-0.468 0.59 0.21 0.028 0.682 0.128 0.932 0.469 0.324 0.44 0.312 1.429 0.312 1.429s0.186 2.726-0.434 3.064c-0.426 0.232-1.011-0.243-2.264-2.409-0.643-1.11-1.128-2.337-1.128-2.337s-0.094-0.23-0.26-0.353c-0.139-0.093-0.302-0.161-0.477-0.194l-0.008-0.001-3.001 0.020s-0.451 0.012-0.617 0.209c-0.147 0.174-0.011 0.534-0.011 0.534s2.35 5.498 5.011 8.27c2.44 2.54 5.21 2.372 5.21 2.372z"></path>
</symbol>
<symbol id="icon-telephone" viewBox="0 0 32 32">
<path fill="#fff" style="fill: var(--color2, #fff)" d="M24.328 21.168c-1.045-1.032-2.35-1.032-3.389 0-0.792 0.787-1.584 1.573-2.363 2.371-0.214 0.219-0.394 0.267-0.653 0.12-0.512-0.28-1.059-0.506-1.552-0.813-2.298-1.445-4.222-3.302-5.926-5.392-0.846-1.040-1.598-2.152-2.125-3.405-0.106-0.253-0.086-0.419 0.12-0.624 0.794-0.768 1.565-1.552 2.344-2.339 1.086-1.091 1.086-2.37-0.006-3.469-0.619-0.626-1.238-1.238-1.858-1.864-0.64-0.64-1.272-1.285-1.918-1.918-1.045-1.019-2.35-1.019-3.389 0.006-0.8 0.786-1.565 1.592-2.378 2.365-0.752 0.712-1.131 1.584-1.211 2.603-0.128 1.658 0.28 3.222 0.851 4.747 1.173 3.157 2.957 5.96 5.12 8.531 2.853 3.404 6.347 6.168 10.311 8.127l0.185 0.083c1.838 0.893 3.742 1.579 5.813 1.691 1.424 0.080 2.664-0.278 3.656-1.392 0.678-0.758 1.445-1.451 2.165-2.176 1.066-1.080 1.072-2.384 0.013-3.45-1.264-1.272-2.538-2.538-3.808-3.803zM23.056 15.861l2.458-0.419c-0.409-2.336-1.504-4.365-3.069-5.926l-0-0c-1.636-1.647-3.792-2.774-6.201-3.116l-0.058-0.007-0.347 2.472c1.911 0.271 3.58 1.144 4.848 2.417l0 0c1.21 1.206 2.057 2.775 2.364 4.53l0.007 0.051zM26.899 5.181c-2.715-2.733-6.294-4.604-10.293-5.17l-0.096-0.011-0.346 2.47c3.424 0.48 6.526 2.032 8.976 4.475 2.245 2.234 3.817 5.142 4.388 8.395l0.014 0.094 2.458-0.419c-0.682-3.877-2.503-7.245-5.1-9.835l-0-0z"></path>
</symbol>
<symbol id="icon-telegram" viewBox="0 0 32 32">
<path fill="#41b4e6" style="fill: var(--color8, #41b4e6)" d="M16 32c8.836 0 16-7.164 16-16s-7.164-16-16-16c-8.836 0-16 7.164-16 16s7.164 16 16 16z"></path>
<path fill="#0091c8" style="fill: var(--color9, #0091c8)" d="M32 16c0-0.389-0.015-0.775-0.043-1.158l-6.63-6.631-18.654 7.338 7.137 7.136 0.094 0.338 7.894 7.894c5.97-2.322 10.202-8.125 10.202-14.916z"></path>
<path fill="#fff" style="fill: var(--color2, #fff)" d="M14.446 18.332l7.231 5.459 3.65-15.581-18.654 7.338 5.676 1.879 10.359-6.948-8.262 7.853z"></path>
<path fill="#d2d2d7" style="fill: var(--color10, #d2d2d7)" d="M12.349 17.427l1.555 5.595 0.542-4.69 8.262-7.853-10.359 6.948z"></path>
<path fill="#b9b9be" style="fill: var(--color11, #b9b9be)" d="M16.796 20.106l-2.892 2.916 0.542-4.69 2.35 1.774z"></path>
</symbol>
<symbol id="icon-star-other-type" viewBox="0 0 32 32">
<path fill="#fff" style="fill: var(--color2, #fff)" d="M19.78 2.868c-1.248-3.58-6.312-3.58-7.56 0l-0.948 2.736c-0.55 1.553-1.99 2.651-3.692 2.688l-0.004 0-2.896 0.056c-3.792 0.080-5.36 4.896-2.336 7.188l2.308 1.748c0.967 0.738 1.584 1.891 1.584 3.188 0 0.414-0.063 0.813-0.179 1.188l0.008-0.028-0.84 2.768c-1.096 3.632 3 6.608 6.116 4.44l2.376-1.652c0.637-0.448 1.429-0.716 2.284-0.716s1.647 0.268 2.297 0.725l-0.013-0.009 2.376 1.656c3.116 2.164 7.212-0.812 6.116-4.44l-0.84-2.772c-0.109-0.347-0.172-0.746-0.172-1.16 0-1.297 0.617-2.45 1.574-3.181l0.010-0.007 2.308-1.748c3.020-2.292 1.456-7.108-2.336-7.188l-2.896-0.056c-1.706-0.037-3.146-1.135-3.687-2.66l-0.009-0.028-0.948-2.736z"></path>
</symbol>
<symbol id="icon-star" viewBox="0 0 32 32">
<path fill="#fff" style="fill: var(--color2, #fff)" d="M14.74 2.289c0.416-1.193 2.104-1.193 2.52 0l2.824 8.127c0.183 0.518 0.663 0.884 1.231 0.896l0.001 0 8.603 0.175c1.263 0.027 1.785 1.632 0.777 2.396l-6.856 5.197c-0.322 0.246-0.528 0.63-0.528 1.062 0 0.138 0.021 0.27 0.059 0.395l-0.003-0.009 2.492 8.236c0.365 1.209-1 2.203-2.037 1.48l-7.063-4.915c-0.212-0.149-0.476-0.239-0.761-0.239s-0.549 0.089-0.766 0.242l0.004-0.003-7.063 4.915c-1.037 0.723-2.403-0.271-2.037-1.48l2.492-8.236c0.036-0.115 0.057-0.248 0.057-0.386 0-0.432-0.206-0.816-0.524-1.060l-0.003-0.002-6.856-5.197c-1.008-0.764-0.485-2.371 0.777-2.396l8.603-0.175c0.569-0.012 1.049-0.379 1.229-0.887l0.003-0.009 2.824-8.127z"></path>
</symbol>
<symbol id="icon-quality" viewBox="0 0 32 32">
<path fill="#ff5c00" style="fill: var(--color6, #ff5c00)" d="M16 1c-8.285 0.001-15 6.718-15 15.003 0 2.835 0.786 5.486 2.152 7.747l-0.038-0.067c-0.071 0.086-0.114 0.197-0.114 0.318 0 0.103 0.031 0.199 0.085 0.279l-0.001-0.002 0.566 0.85-2.407 1.444c-0.147 0.089-0.243 0.248-0.243 0.429 0 0.242 0.171 0.443 0.399 0.49l0.003 0.001 2.075 0.415-0.139 2.567c-0 0.008-0.001 0.017-0.001 0.026 0 0.276 0.224 0.5 0.5 0.5 0.095 0 0.183-0.026 0.259-0.072l-0.002 0.001 3.819-2.293c2.287 1.483 5.084 2.365 8.086 2.365s5.799-0.882 8.145-2.4l-0.059 0.036 3.819 2.293c0.074 0.045 0.163 0.072 0.258 0.072 0.276 0 0.5-0.224 0.5-0.5 0-0.009-0-0.019-0.001-0.028l0 0.001-0.139-2.567 2.075-0.415c0.231-0.047 0.402-0.249 0.402-0.49 0-0.181-0.096-0.34-0.241-0.427l-0.002-0.001-2.408-1.444 0.566-0.85c0.053-0.078 0.084-0.174 0.084-0.277 0-0.121-0.043-0.232-0.115-0.319l0.001 0.001c1.329-2.194 2.115-4.845 2.115-7.68 0-8.285-6.716-15.001-15.001-15.002h-0zM5.648 23.524c3.027-1.486 6.588-2.356 10.352-2.356s7.325 0.869 10.493 2.418l-0.141-0.062 1.412 0.678-1.443 2.164c-3.031-1.413-6.58-2.238-10.322-2.238s-7.291 0.825-10.476 2.302l0.154-0.064-1.443-2.164 1.413-0.678zM16 20.168c-2.973 0.004-5.823 0.525-8.467 1.477l0.175-0.055c-1.069-1.559-1.708-3.488-1.708-5.565 0-0.009 0-0.018 0-0.027v0.001c0-5.514 4.486-10 10-10s10 4.486 10 10c0 0.007 0 0.015 0 0.024 0 2.078-0.638 4.006-1.73 5.601l0.022-0.034c-2.469-0.897-5.319-1.418-8.29-1.422h-0.002zM19.461 25.383c-1.029 0.391-2.218 0.617-3.461 0.617s-2.432-0.226-3.53-0.64l0.069 0.023c1.040-0.162 2.24-0.255 3.461-0.255s2.421 0.093 3.592 0.272l-0.131-0.016zM4.388 29.586l0.112-2.059c0-0.008 0.001-0.018 0.001-0.027 0-0.242-0.171-0.443-0.399-0.49l-0.003-0.001-1.232-0.247 1.34-0.803 0.878 1.317c0.091 0.135 0.243 0.223 0.416 0.223 0.078 0 0.152-0.018 0.218-0.050l-0.003 0.001c0.193-0.1 0.527-0.252 0.865-0.396l0.15-0.057 0.563 0.843-2.906 1.745zM8.455 27.794c-0.012-0.028-0.025-0.051-0.040-0.073l0.001 0.002-0.733-1.1c0.848-0.328 1.894-0.645 2.968-0.89l0.162-0.031c1.501 0.818 3.288 1.299 5.188 1.299s3.686-0.481 5.246-1.328l-0.058 0.029c1.236 0.276 2.282 0.593 3.296 0.976l-0.166-0.055-0.733 1.1c-0.014 0.020-0.027 0.044-0.038 0.069l-0.001 0.003c-2.134 1.383-4.743 2.205-7.545 2.205s-5.411-0.822-7.6-2.239l0.055 0.033zM29.134 26.763l-1.232 0.246c-0.231 0.047-0.402 0.249-0.402 0.49 0 0.010 0 0.019 0.001 0.029l-0-0.001 0.111 2.059-2.906-1.745 0.563-0.844c0.342 0.144 0.681 0.295 1.016 0.454 0.063 0.031 0.137 0.049 0.215 0.049 0.173 0 0.325-0.088 0.415-0.221l0.001-0.002 0.878-1.317 1.339 0.803zM28.005 23.207l-1.22-0.586c-0.502-0.241-1.013-0.465-1.532-0.672 1.095-1.673 1.747-3.723 1.747-5.925 0-0.009 0-0.018-0-0.026v0.001c0-6.066-4.934-11-11-11s-11 4.934-11 11c-0 0.008-0 0.018-0 0.028 0 2.201 0.652 4.25 1.772 5.964l-0.026-0.042c-0.518 0.207-1.028 0.431-1.531 0.672l-1.22 0.585c-1.254-2.056-1.996-4.543-1.996-7.204 0-7.732 6.268-14 14-14s14 6.268 14 14c0 2.661-0.742 5.148-2.031 7.266l0.035-0.062z"></path>
<path fill="#ff5c00" style="fill: var(--color6, #ff5c00)" d="M20.75 12h-2.75c-0.276 0-0.5-0.224-0.5-0.5v0-1.5c-0.001-0.828-0.672-1.499-1.5-1.5h-1c-0.276 0-0.5 0.224-0.5 0.5v0 1.102c0 0.002 0 0.005 0 0.008 0 0.791-0.322 1.508-0.842 2.025l-0.365 0.365h-2.793c-0.276 0-0.5 0.224-0.5 0.5v0 5.5c0 0.276 0.224 0.5 0.5 0.5h8.75c0 0 0.001 0 0.001 0 0.69 0 1.249-0.559 1.249-1.249 0-0.16-0.030-0.313-0.085-0.453l0.003 0.009c0.352-0.225 0.582-0.614 0.582-1.056 0-0.16-0.030-0.312-0.084-0.453l0.003 0.009c0.352-0.225 0.581-0.614 0.581-1.056 0-0.16-0.030-0.312-0.085-0.453l0.003 0.009c0.351-0.225 0.58-0.614 0.58-1.055 0-0.69-0.559-1.249-1.249-1.25h-0zM11 13.5h2v4.5h-2v-4.5zM20.75 13.5h-0.5c-0.269 0.009-0.484 0.229-0.484 0.5s0.215 0.491 0.483 0.5l0.001 0c0.133 0.006 0.239 0.116 0.239 0.25s-0.105 0.244-0.238 0.25l-0.001 0h-0.5c-0.269 0.009-0.484 0.229-0.484 0.5s0.215 0.491 0.483 0.5l0.001 0c0.138 0 0.25 0.112 0.25 0.25s-0.112 0.25-0.25 0.25h-0.5c-0.269 0.009-0.484 0.229-0.484 0.5s0.215 0.491 0.483 0.5l0.001 0c0.133 0.006 0.239 0.116 0.239 0.25s-0.105 0.244-0.238 0.25l-0.001 0h-5.25v-4.793l0.365-0.365c0.701-0.698 1.135-1.663 1.135-2.73 0-0.004 0-0.007 0-0.011v0.001-0.602h0.5c0.276 0 0.5 0.224 0.5 0.5v1.5c0.001 0.828 0.672 1.499 1.5 1.5h2.75c0.138 0 0.25 0.112 0.25 0.25s-0.112 0.25-0.25 0.25v0zM14.963 22.512l0.462 0.337-0.177 0.544c-0.006 0.018-0.010 0.038-0.010 0.060 0 0.103 0.084 0.187 0.187 0.187 0.042 0 0.080-0.014 0.112-0.037l-0.001 0 0.463-0.336 0.462 0.336c0.031 0.023 0.069 0.036 0.111 0.036 0.103 0 0.187-0.084 0.187-0.187 0-0.021-0.003-0.041-0.010-0.060l0 0.001-0.177-0.544 0.462-0.336c0.047-0.035 0.077-0.090 0.077-0.151 0-0.103-0.083-0.187-0.187-0.188h-0.572l-0.177-0.544c-0.024-0.076-0.095-0.131-0.178-0.131s-0.154 0.054-0.178 0.13l-0 0.001-0.177 0.544h-0.572c-0.103 0.001-0.187 0.084-0.187 0.188 0 0.062 0.030 0.117 0.076 0.151l0.001 0zM12.078 22.874l0.462 0.336-0.177 0.544c-0.006 0.017-0.009 0.036-0.009 0.057 0 0.104 0.084 0.188 0.188 0.188 0.041 0 0.079-0.013 0.11-0.036l-0.001 0 0.463-0.336 0.462 0.336c0.031 0.023 0.069 0.036 0.111 0.036 0.103 0 0.187-0.084 0.187-0.187 0-0.021-0.003-0.041-0.010-0.060l0 0.001-0.177-0.544 0.462-0.336c0.046-0.035 0.075-0.089 0.075-0.15 0-0.103-0.083-0.187-0.185-0.188h-0.572l-0.176-0.544c-0.025-0.076-0.096-0.13-0.179-0.13s-0.154 0.054-0.178 0.129l-0 0.001-0.176 0.544h-0.572c-0 0-0 0-0.001 0-0.103 0-0.187 0.084-0.187 0.187 0 0.062 0.030 0.118 0.077 0.152l0.001 0zM17.849 22.874l0.462 0.336-0.177 0.544c-0.006 0.017-0.009 0.036-0.009 0.057 0 0.104 0.084 0.188 0.188 0.188 0.041 0 0.079-0.013 0.11-0.036l-0.001 0 0.462-0.336 0.462 0.336c0.030 0.022 0.069 0.035 0.11 0.035 0.104 0 0.188-0.084 0.188-0.188 0-0.020-0.003-0.040-0.009-0.059l0 0.001-0.176-0.544 0.462-0.336c0.047-0.034 0.077-0.089 0.077-0.151 0-0.103-0.084-0.187-0.187-0.187h-0.572l-0.177-0.544c-0.025-0.077-0.095-0.131-0.179-0.131s-0.154 0.055-0.178 0.13l-0 0.001-0.176 0.544h-0.572c-0.103 0-0.187 0.084-0.187 0.188 0 0.062 0.030 0.117 0.076 0.151l0 0z"></path>
</symbol>
<symbol id="icon-power" viewBox="0 0 32 32">
<path fill="#ff5c00" style="fill: var(--color6, #ff5c00)" d="M27.314 4.686c-3.022-3.022-7.040-4.686-11.314-4.686s-8.292 1.664-11.314 4.686c-3.022 3.022-4.686 7.040-4.686 11.314s1.664 8.292 4.686 11.314c3.022 3.022 7.040 4.686 11.314 4.686s8.292-1.664 11.314-4.686c3.022-3.022 4.686-7.040 4.686-11.314s-1.664-8.292-4.686-11.314zM16 30.125c-7.789 0-14.125-6.336-14.125-14.125s6.336-14.125 14.125-14.125c7.789 0 14.125 6.336 14.125 14.125s-6.336 14.125-14.125 14.125z"></path>
<path fill="#ff5c00" style="fill: var(--color6, #ff5c00)" d="M20.125 6.551c-0.118-0.057-0.256-0.090-0.402-0.090-0.518 0-0.938 0.42-0.938 0.938 0 0.392 0.241 0.728 0.582 0.868l0.006 0.002c3.004 1.336 5.061 4.293 5.063 7.731v0c0 4.652-3.785 8.437-8.437 8.437s-8.437-3.785-8.437-8.437c0.002-3.438 2.059-6.395 5.009-7.709l0.054-0.021c0.324-0.152 0.545-0.476 0.545-0.851 0-0.518-0.42-0.938-0.938-0.938-0.129 0-0.252 0.026-0.364 0.073l0.006-0.002c-3.671 1.633-6.185 5.247-6.187 9.448v0c0 5.686 4.626 10.313 10.312 10.313s10.313-4.626 10.313-10.313c-0.002-4.202-2.516-7.816-6.121-9.422l-0.066-0.026z"></path>
<path fill="#ff5c00" style="fill: var(--color6, #ff5c00)" d="M16 13.812c0.517 0 0.938-0.42 0.938-0.937v-7.5c0-0.518-0.42-0.938-0.938-0.938s-0.938 0.42-0.938 0.938v0 7.5c0 0.517 0.42 0.937 0.938 0.937z"></path>
</symbol>
<symbol id="icon-map" viewBox="0 0 32 32">
<path fill="#dfeef4" style="fill: var(--color12, #dfeef4)" d="M27.428 21.339h-7.935c-1.169 1.838-2.319 3.415-3.558 4.916l0.065-0.081c-1.174-1.419-2.324-2.996-3.377-4.641l-0.115-0.193h-7.936l-3.754 9.842h30.365l-3.756-9.843z"></path>
<path fill="#f45858" style="fill: var(--color13, #f45858)" d="M16 0.819c-4.463 0-8.081 3.619-8.081 8.082v0c-0.048 7.71 8.081 17.272 8.081 17.272s8.13-9.563 8.082-17.273c-0-4.463-3.619-8.081-8.082-8.081v0zM16 12.329c-1.894 0-3.429-1.535-3.429-3.429s1.535-3.429 3.429-3.429v0c1.894 0 3.429 1.535 3.429 3.429s-1.535 3.429-3.429 3.429v0z"></path>
<path fill="#f2da30" style="fill: var(--color14, #f2da30)" d="M28.3 23.621l-15.153 5.389-5.905-7.672h5.266c1.168 1.839 2.318 3.416 3.558 4.917l-0.065-0.082c1.174-1.419 2.323-2.996 3.376-4.641l0.115-0.193h7.937l0.872 2.281z"></path>
<path fill="#3ea2e5" style="fill: var(--color15, #3ea2e5)" d="M7.042 31.183l15-5.336 4.106 5.335h-19.106z"></path>
<path fill="#000" style="fill: var(--color1, #000)" d="M22.509 4.933c0.082 0.133 0.228 0.221 0.393 0.221 0.254 0 0.461-0.206 0.461-0.461 0-0.089-0.025-0.172-0.069-0.242l0.001 0.002c-0.242-0.395-0.514-0.769-0.817-1.12-0.084-0.088-0.203-0.143-0.334-0.143-0.254 0-0.461 0.206-0.461 0.461 0 0.107 0.037 0.206 0.098 0.284l-0.001-0.001c0.269 0.313 0.512 0.648 0.728 1zM12.111 8.901c0.001 2.147 1.742 3.888 3.889 3.888s3.889-1.741 3.889-3.889c0-0 0-0.001 0-0.001v0c-0-2.147-1.741-3.888-3.889-3.888s-3.889 1.741-3.889 3.889c0 0 0 0.001 0 0.001v-0zM18.968 8.901c-0 1.639-1.329 2.967-2.968 2.967s-2.968-1.329-2.968-2.968c0-0 0-0.001 0-0.001v0c0-1.639 1.329-2.968 2.968-2.968s2.968 1.329 2.968 2.968c0 0 0 0 0 0v-0zM2.088 27.849c0.049 0.020 0.106 0.031 0.166 0.031 0.195 0 0.362-0.122 0.428-0.294l0.001-0.003 0.421-1.105c0.018-0.047 0.028-0.101 0.028-0.158 0-0.254-0.206-0.461-0.461-0.461-0.193 0-0.358 0.119-0.427 0.287l-0.001 0.003-0.421 1.105c-0.019 0.049-0.030 0.105-0.030 0.164 0 0.195 0.122 0.362 0.293 0.429l0.003 0.001z"></path>
<path fill="#000" style="fill: var(--color1, #000)" d="M31.613 31.018l-3.754-9.842c-0.068-0.175-0.235-0.296-0.43-0.296-0 0-0 0-0.001 0h-7.106l0.131-0.211c2.733-4.526 4.109-8.486 4.090-11.767 0-0.835-0.121-1.665-0.361-2.464-0.063-0.184-0.235-0.313-0.436-0.313-0.254 0-0.461 0.206-0.461 0.461 0 0.042 0.006 0.082 0.016 0.121l-0.001-0.003c0.214 0.714 0.323 1.455 0.322 2.201 0.040 6.539-6.076 14.607-7.622 16.542-1.546-1.934-7.661-10-7.622-16.547 0.001-4.209 3.414-7.621 7.624-7.621 1.639 0 3.158 0.517 4.401 1.398l-0.024-0.016c0.075 0.054 0.168 0.087 0.269 0.087 0.254 0 0.461-0.206 0.461-0.461 0-0.157-0.079-0.296-0.199-0.379l-0.002-0.001c-1.367-0.97-3.070-1.55-4.908-1.55-4.717 0-8.542 3.823-8.545 8.539v0c-0.020 3.284 1.356 7.245 4.090 11.77 0.043 0.072 0.087 0.141 0.13 0.211h-7.103c-0.195 0-0.362 0.122-0.429 0.293l-0.001 0.003-1.080 2.832c-0.018 0.047-0.028 0.101-0.028 0.158 0 0.254 0.206 0.461 0.461 0.461 0.193 0 0.358-0.119 0.427-0.287l0.001-0.003 0.967-2.536h2.127l5.379 6.991-5.432 1.932h-5.477l0.425-1.117c0.018-0.047 0.028-0.101 0.028-0.158 0-0.254-0.206-0.461-0.461-0.461-0.193 0-0.358 0.119-0.427 0.287l-0.001 0.003-0.664 1.743c-0.019 0.049-0.030 0.105-0.030 0.163 0 0.254 0.206 0.46 0.459 0.46h30.366c0.254-0 0.459-0.206 0.459-0.46 0-0.059-0.011-0.115-0.031-0.166l0.001 0.003zM8.177 21.8h4.077c1.144 1.779 2.262 3.303 3.462 4.757l-0.066-0.083c0.085 0.1 0.21 0.163 0.351 0.163s0.266-0.063 0.35-0.162l0.001-0.001c1.133-1.371 2.251-2.895 3.279-4.483l0.116-0.191h7.365l0.589 1.546-14.392 5.12-5.13-6.666zM13.292 29.448h0.003l8.586-3.053 3.33 4.327h-15.5l3.581-1.274zM26.374 30.721l-3.581-4.652 5.237-1.863 2.484 6.515h-4.139z"></path>
</symbol>
<symbol id="icon-mail" viewBox="0 0 32 32">
<path fill="#feb920" style="fill: var(--color16, #feb920)" d="M32 12.571l-0.938 11.913h-30.125l-0.938-11.912 5.333-3.81h21.334l5.333 3.81z"></path>
<path fill="#fc9b28" style="fill: var(--color17, #fc9b28)" d="M32 12.571l-0.938 11.913h-15.062v-15.722h10.667l5.333 3.809z"></path>
<path fill="#e6f3ff" style="fill: var(--color18, #e6f3ff)" d="M5.333 1.143h21.334v24h-21.334v-24z"></path>
<path fill="#bbe4f2" style="fill: var(--color19, #bbe4f2)" d="M16 1.143h10.667v24h-10.667v-24z"></path>
<path fill="#393e9f" style="fill: var(--color20, #393e9f)" d="M9.143 4.777h6.857v1.875h-6.857v-1.876zM9.143 9.348h13.713v1.875h-13.713v-1.875zM9.143 13.92h13.713v1.874h-13.713v-1.875z"></path>
<path fill="#340d66" style="fill: var(--color21, #340d66)" d="M16 9.348h6.857v1.875h-6.857v-1.875zM16 13.92h6.857v1.874h-6.857v-1.875z"></path>
<path fill="#ffcf67" style="fill: var(--color22, #ffcf67)" d="M32 12.571v18.286l-16-1.486-16 1.486v-18.286l12.8 9.143h6.4l12.8-9.143z"></path>
<path fill="#feb920" style="fill: var(--color16, #feb920)" d="M32 12.571v18.286l-16-1.486v-7.656h3.2l12.8-9.143z"></path>
<path fill="#feb920" style="fill: var(--color16, #feb920)" d="M32 30.857h-32l16-11.428 16 11.427z"></path>
<path fill="#fc9b28" style="fill: var(--color17, #fc9b28)" d="M32 30.857h-16v-11.428l16 11.427z"></path>
</symbol>
<symbol id="icon-interactive" viewBox="0 0 32 32">
<path fill="#ff5c00" style="fill: var(--color6, #ff5c00)" d="M6.194 3.097c-1.71 0.002-3.096 1.387-3.097 3.097v0c0.002 1.71 1.387 3.095 3.097 3.097h0c1.709-0.002 3.095-1.387 3.097-3.096v-0c-0.002-1.71-1.387-3.095-3.096-3.097h-0zM6.194 8.258c-1.14-0.001-2.063-0.925-2.065-2.064v-0c0.001-1.14 0.925-2.063 2.064-2.065h0c1.14 0.001 2.064 0.924 2.065 2.064v0c-0.001 1.14-0.925 2.064-2.064 2.065h-0z"></path>
<path fill="#ff5c00" style="fill: var(--color6, #ff5c00)" d="M30.452 16.516c-0.668 0.002-1.235 0.427-1.45 1.021l-0.003 0.011h-1.127v-4.129h-1.032v4.129h-1.033v-2.064h-1.032v2.064h-1.033v-3.097h-1.032v3.097h-0.314l-4.839-4.494c0.324-0.494 0.508-1.083 0.508-1.699 0-0.846-0.341-1.613-0.893-2.172l3.186-3.505h1.346c0.26 2.604 2.464 4.645 5.135 4.645 2.846 0 5.161-2.315 5.161-5.162s-2.314-5.161-5.161-5.161c-2.672 0-4.876 2.041-5.135 4.645h-1.803l-3.573 3.931c-0.397-0.2-0.865-0.318-1.36-0.318h-0c-0.015 0-0.030 0.002-0.045 0.002l-0.573-2.583h-1.963v-0.888l-1.384-0.461c-0.028-0.072-0.058-0.144-0.090-0.215l0.653-1.305-1.986-1.986-1.305 0.653c-0.042-0.020-0.113-0.051-0.186-0.079l-0.030-0.011-0.461-1.385h-2.809l-0.461 1.384c-0.073 0.028-0.144 0.058-0.216 0.090l-1.305-0.652-1.986 1.986 0.653 1.305c-0.021 0.043-0.051 0.114-0.079 0.186l-0.010 0.030-1.385 0.461v2.809l1.384 0.461c0.028 0.073 0.058 0.144 0.090 0.216l-0.653 1.305 1.986 1.986 1.305-0.653c0.071 0.032 0.144 0.062 0.215 0.091l0.462 1.383h2.809l0.461-1.384c0.072-0.028 0.144-0.058 0.215-0.090l1.305 0.653 1.986-1.986-0.653-1.305c0.032-0.072 0.062-0.144 0.090-0.216l1.385-0.461v-0.888h1.134l0.386 1.739c-1.186 0.435-2.036 1.571-2.036 2.906 0 0.852 0.353 1.639 0.939 2.211l-2.757 3.982h-0.762v-3.097h-1.032v3.097h-1.033v-4.129h-1.032v4.129h-1.033v-2.064h-1.032v2.064h-1.127c-0.218-0.605-0.786-1.030-1.453-1.032h-0c-0.854 0.001-1.547 0.693-1.548 1.548v0c0 0.853 0.695 1.548 1.548 1.548 0.668-0.002 1.235-0.427 1.45-1.021l0.003-0.011h7.591l2.827-4.083v10.574c-0.097-0.099-0.166-0.227-0.193-0.37l-0.001-0.004-0.925-5.085h-1.37c-0.906 0.001-1.641 0.735-1.642 1.642v0.33c0 0.091 0.008 0.181 0.022 0.27l0.928 5.571c0.073 0.434 0.256 0.845 0.531 1.188l1.276 1.595c0.219 0.275 0.339 0.619 0.339 0.968v0.825h8.258v-0.825c0-0.35 0.12-0.693 0.339-0.967l1.159-1.45c0.352-0.437 0.565-0.999 0.565-1.611v-5.47c0-0.853-0.694-1.548-1.548-1.548-0.204 0-0.397 0.042-0.576 0.114-0.182-0.664-0.778-1.144-1.488-1.146h-0c-0.182 0-0.355 0.037-0.516 0.095v-0.095c0-0.853-0.695-1.548-1.548-1.548-0.182 0-0.354 0.037-0.516 0.095v-3.613c0.117-0.068 0.227-0.143 0.333-0.224l5.141 4.774h7.008c0.218 0.605 0.786 1.030 1.453 1.032h0c0.853 0 1.548-0.695 1.548-1.548s-0.695-1.548-1.548-1.548zM22.709 5.162c0-0.567 0.115-1.109 0.323-1.602l0.907 0.524c-0.125 0.336-0.197 0.699-0.197 1.077 0 0.38 0.072 0.742 0.197 1.078l-0.907 0.523c-0.204-0.471-0.323-1.020-0.323-1.596 0-0.002 0-0.004 0-0.005v0zM26.838 3.097c1.139 0.002 2.063 0.925 2.064 2.064v0c-0.001 1.14-0.924 2.063-2.064 2.065h-0c-1.14-0.001-2.063-0.925-2.065-2.064v-0c0.001-1.14 0.924-2.064 2.064-2.065h0zM30.967 5.161c0 0.001 0 0.003 0 0.004 0 0.577-0.119 1.126-0.333 1.624l0.010-0.027-0.907-0.523c0.125-0.336 0.197-0.699 0.197-1.077-0.001-0.388-0.073-0.758-0.204-1.099l0.007 0.021 0.907-0.524c0.208 0.493 0.323 1.034 0.323 1.601zM23.554 7.654l0.899-0.519c0.464 0.557 1.112 0.947 1.85 1.075l0.018 0.003v1.043c-1.136-0.148-2.11-0.739-2.761-1.591l-0.007-0.010zM27.354 9.255v-1.043c0.757-0.131 1.405-0.52 1.865-1.072l0.004-0.005 0.899 0.519c-0.658 0.862-1.633 1.453-2.747 1.599l-0.021 0.002zM30.122 2.669l-0.899 0.519c-0.464-0.557-1.113-0.946-1.851-1.075l-0.019-0.003v-1.043c1.136 0.148 2.11 0.739 2.761 1.591l0.007 0.010zM26.322 1.068v1.043c-0.747 0.126-1.405 0.517-1.869 1.077l-0.899-0.519c0.658-0.862 1.633-1.453 2.747-1.599l0.021-0.002zM11.355 6.854l-1.161 0.387-0.081 0.246c-0.061 0.187-0.14 0.375-0.235 0.561l-0.117 0.231 0.548 1.097-0.933 0.933-1.097-0.548-0.231 0.117c-0.155 0.081-0.34 0.16-0.532 0.226l-0.029 0.009-0.246 0.080-0.386 1.161h-1.321l-0.387-1.161-0.246-0.081c-0.221-0.074-0.407-0.154-0.585-0.245l0.023 0.011-0.231-0.116-1.096 0.548-0.933-0.934 0.548-1.097-0.117-0.231c-0.081-0.154-0.16-0.34-0.226-0.531l-0.009-0.030-0.080-0.246-1.162-0.387v-1.321l1.162-0.387 0.081-0.246c0.061-0.187 0.14-0.375 0.234-0.561l0.117-0.232-0.549-1.096 0.933-0.933 1.097 0.548 0.232-0.117c0.154-0.081 0.34-0.16 0.531-0.226l0.030-0.009 0.246-0.081 0.387-1.161h1.321l0.387 1.162 0.246 0.081c0.187 0.061 0.375 0.14 0.561 0.234l0.231 0.117 1.097-0.548 0.933 0.933-0.548 1.097 0.117 0.232c0.094 0.187 0.172 0.375 0.235 0.561l0.080 0.246 1.162 0.387v1.319h-0.002zM1.548 18.58c-0.285-0.001-0.516-0.231-0.516-0.516v-0c0.001-0.285 0.231-0.516 0.516-0.516h0c0.285 0.001 0.516 0.231 0.516 0.516v0c-0.001 0.285-0.231 0.516-0.516 0.516h-0zM14.968 9.29c1.14 0.002 2.063 0.925 2.064 2.064v0c0 0.521-0.197 1.010-0.532 1.382-0.085-0.779-0.738-1.38-1.532-1.382h-0c-0.795 0.002-1.448 0.605-1.531 1.378l-0.001 0.007c-0.33-0.364-0.532-0.849-0.532-1.382 0-0.001 0-0.002 0-0.003v0c0.002-1.139 0.925-2.062 2.064-2.064h0zM17.032 18.58c0.285 0.001 0.515 0.231 0.516 0.516v6.195h1.033v-4.645c0.001-0.284 0.231-0.515 0.516-0.516h0c0.285 0.001 0.516 0.231 0.516 0.516v4.645h1.033v-3.613c0.001-0.285 0.231-0.515 0.516-0.516h0c0.285 0.001 0.516 0.231 0.516 0.516v5.469c0 0.35-0.12 0.693-0.339 0.968l-1.159 1.45c-0.309 0.385-0.512 0.867-0.556 1.395l-0.001 0.009h-6.211c-0.045-0.537-0.248-1.019-0.561-1.409l0.004 0.005-1.276-1.595c-0.159-0.197-0.272-0.439-0.318-0.703l-0.001-0.009-0.928-5.572c-0.005-0.030-0.008-0.065-0.008-0.1v-0.33c0-0.336 0.273-0.609 0.609-0.609h0.508l0.771 4.238c0.154 0.824 0.867 1.439 1.725 1.439 0 0 0 0 0 0h0.516v-13.419c0.001-0.285 0.231-0.515 0.516-0.516h0c0.285 0.001 0.516 0.231 0.516 0.516v12.387h1.033v-6.194c0.001-0.285 0.232-0.515 0.516-0.516h0zM30.452 18.58c-0.285-0.001-0.516-0.231-0.516-0.516v-0c0.001-0.285 0.231-0.516 0.516-0.516h0c0.285 0.001 0.516 0.231 0.516 0.516v0c-0.001 0.285-0.231 0.516-0.516 0.516h-0z"></path>
</symbol>
<symbol id="icon-help-hand" viewBox="0 0 32 32">
<path fill="#7c8388" style="fill: var(--color23, #7c8388)" d="M0.438 17.568h2.984v12.112h-2.985v-12.112z"></path>
<path fill="#ffdcaa" style="fill: var(--color24, #ffdcaa)" d="M31.562 21.641c0-0.001 0-0.001 0-0.002 0-0.953-0.773-1.726-1.726-1.726-0.229 0-0.448 0.045-0.648 0.126l0.012-0.004-9.080 3.589-2.135-0.522c0.121 0.030 0.261 0.048 0.404 0.048 0.953 0 1.725-0.772 1.725-1.725 0-0.748-0.476-1.384-1.141-1.623l-0.012-0.004-4.264-1.482c-1.097-0.394-2.362-0.621-3.681-0.621-1.313 0-2.574 0.226-3.745 0.641l0.078-0.024-3.928 1.36v7.17h4.619l4.522 2.278c0.672 0.346 1.467 0.548 2.308 0.548 0.752 0 1.465-0.162 2.109-0.452l-0.032 0.013 13.586-6.008c0.611-0.275 1.028-0.878 1.028-1.579 0-0 0-0 0-0v0z"></path>
<path fill="#f4f1f1" style="fill: var(--color25, #f4f1f1)" d="M17.79 11.825l-0.246-0.362c-0.612-0.884-0.979-1.979-0.982-3.158v-0.001c0-3.3 2.916-5.983 6.5-5.983s6.5 2.684 6.5 5.984c0 3.298-2.916 5.982-6.5 5.982-0.002 0-0.003 0-0.005 0-0.726 0-1.426-0.111-2.084-0.316l0.050 0.013-0.262-0.080-3.8 1.019 0.83-3.098z"></path>
<path fill="#abe751" style="fill: var(--color26, #abe751)" d="M25.883 9.58c-1.008-0.582-1.388-0.154-1.388-0.154l-0.178 0.87c-1.442-0.541-2.559-1.659-3.088-3.064l-0.012-0.036 0.869-0.178s0.43-0.381-0.153-1.389c-0.526-0.906-1.214-0.716-1.214-0.716l-1.055 1.055c-0.097 0.097-0.157 0.231-0.157 0.379 0 0.031 0.003 0.062 0.008 0.091l-0-0.003c0.25 1.45 0.916 2.713 1.868 3.697l-0.002-0.002c0.982 0.951 2.245 1.616 3.653 1.86l0.042 0.006c0.026 0.005 0.057 0.007 0.088 0.007 0.148 0 0.282-0.060 0.379-0.158l1.056-1.055s0.192-0.688-0.715-1.212z"></path>
</symbol>
<symbol id="icon-guarantee-1" viewBox="0 0 32 32">
<path fill="#ff5c00" style="fill: var(--color6, #ff5c00)" d="M11.759 13.688h-0.156v-2.343c0-0.417-0.507-0.625-0.8-0.331l-0.625 0.625c-0.084 0.085-0.137 0.202-0.137 0.331 0 0.259 0.21 0.469 0.469 0.469 0.056 0 0.109-0.010 0.159-0.027l-0.003 0.001v1.277h-0.156c-0.259 0-0.469 0.21-0.469 0.469s0.21 0.469 0.469 0.469v0h1.249c0.259 0 0.469-0.21 0.469-0.469s-0.21-0.469-0.469-0.469v0zM14.169 10.875c-0.776 0.001-1.405 0.63-1.406 1.406v0.937c0.001 0.776 0.63 1.405 1.406 1.406h0c0.776-0.001 1.405-0.63 1.406-1.406v-0.937c-0.001-0.776-0.63-1.405-1.406-1.406h-0zM14.637 13.219c-0.012 0.25-0.217 0.448-0.469 0.448s-0.457-0.198-0.469-0.447l-0-0.001v-0.937c0.012-0.25 0.217-0.448 0.469-0.448s0.457 0.198 0.469 0.447l0 0.001v0.937zM17.517 10.875c-0.776 0.001-1.405 0.63-1.406 1.406v0.937c0.001 0.776 0.63 1.405 1.406 1.406h0c0.776-0.001 1.405-0.63 1.406-1.406v-0.937c-0.001-0.776-0.63-1.405-1.406-1.406h-0zM17.986 13.219c-0.012 0.25-0.217 0.448-0.469 0.448s-0.457-0.198-0.469-0.447l-0-0.001v-0.937c0.012-0.25 0.217-0.448 0.469-0.448s0.457 0.198 0.469 0.447l0 0.001v0.937zM19.929 11.812c0.259 0 0.469-0.21 0.469-0.469s-0.21-0.469-0.469-0.469v0c-0.259 0-0.469 0.21-0.469 0.469s0.21 0.469 0.469 0.469v0zM21.719 10.934c-0.066-0.037-0.144-0.059-0.228-0.059-0.175 0-0.328 0.096-0.409 0.239l-0.001 0.002-1.562 2.812c-0.035 0.064-0.056 0.141-0.056 0.222 0 0.259 0.21 0.469 0.469 0.469 0.173 0 0.324-0.094 0.405-0.233l0.001-0.002 1.563-2.812c0.037-0.066 0.059-0.144 0.059-0.227 0-0.175-0.096-0.328-0.239-0.408l-0.002-0.001zM21.491 13.687c-0.259 0-0.469 0.21-0.469 0.469s0.21 0.469 0.469 0.469v0c0.259 0 0.469-0.21 0.469-0.469s-0.21-0.469-0.469-0.469v0z"></path>
<path fill="#ff5c00" style="fill: var(--color6, #ff5c00)" d="M0.469 17.407c0.259 0 0.469-0.21 0.469-0.469v0c0-0.259 0.21-0.469 0.469-0.469h29.188c0.258 0 0.469 0.211 0.469 0.469s0.21 0.469 0.469 0.469 0.469-0.21 0.469-0.469v0c-0.001-0.776-0.63-1.405-1.406-1.407h-0.451c-0.081-0.216-0.208-0.399-0.369-0.543l-0.001-0.001-1.585-1.411 0.925-1.91c0.085-0.173 0.135-0.376 0.135-0.591 0-0.59-0.376-1.092-0.902-1.279l-0.009-0.003-2.005-0.697 0.124-2.118c0.001-0.023 0.002-0.051 0.002-0.079 0-0.75-0.608-1.357-1.357-1.357-0.027 0-0.055 0.001-0.082 0.002l0.004-0-2.119 0.124-0.697-2.005c-0.19-0.535-0.692-0.911-1.282-0.911-0.215 0-0.418 0.050-0.599 0.139l0.008-0.004-1.91 0.925-1.41-1.585c-0.25-0.28-0.611-0.455-1.013-0.455s-0.764 0.175-1.012 0.453l-0.001 0.001-1.411 1.585-1.91-0.925c-0.173-0.085-0.376-0.135-0.591-0.135-0.59 0-1.091 0.376-1.279 0.901l-0.003 0.009-0.697 2.005-2.119-0.123c-0.023-0.001-0.050-0.002-0.078-0.002-0.75 0-1.357 0.608-1.357 1.357 0 0.027 0.001 0.054 0.002 0.081l-0-0.004 0.123 2.119-2.005 0.697c-0.535 0.19-0.911 0.692-0.911 1.282 0 0.215 0.050 0.418 0.139 0.599l-0.004-0.008 0.925 1.91-1.585 1.411c-0.163 0.146-0.29 0.328-0.368 0.535l-0.003 0.009h-0.45c-0.776 0.001-1.405 0.63-1.406 1.406v0c0 0.259 0.21 0.469 0.469 0.469zM4.7 14.041c0.097-0.086 0.157-0.211 0.157-0.35 0-0.074-0.017-0.145-0.048-0.207l0.001 0.003-1.079-2.229c-0.027-0.053-0.042-0.116-0.042-0.183 0-0.182 0.116-0.337 0.279-0.395l0.003-0.001 2.339-0.813c0.185-0.066 0.315-0.239 0.315-0.443 0-0.009-0-0.019-0.001-0.028l0 0.001-0.144-2.472c-0-0.008-0.001-0.016-0.001-0.025 0-0.231 0.187-0.418 0.418-0.418 0.009 0 0.018 0 0.027 0.001l-0.001-0 2.472 0.144c0.008 0 0.018 0.001 0.027 0.001 0.204 0 0.377-0.13 0.442-0.312l0.001-0.003 0.813-2.339c0.058-0.165 0.213-0.281 0.395-0.281 0.067 0 0.13 0.016 0.185 0.043l-0.002-0.001 2.229 1.079c0.060 0.029 0.13 0.047 0.204 0.047 0.139 0 0.264-0.060 0.35-0.157l0-0 1.646-1.85c0.077-0.087 0.189-0.141 0.313-0.141s0.236 0.054 0.313 0.14l0 0 1.646 1.85c0.086 0.097 0.211 0.157 0.35 0.157 0.074 0 0.145-0.017 0.207-0.048l-0.003 0.001 2.229-1.079c0.053-0.027 0.116-0.042 0.183-0.042 0.182 0 0.337 0.116 0.394 0.279l0.001 0.003 0.813 2.339c0.069 0.198 0.261 0.326 0.47 0.314l2.472-0.144c0.008-0 0.016-0.001 0.025-0.001 0.231 0 0.418 0.187 0.418 0.418 0 0.009-0 0.018-0.001 0.027l0-0.001-0.144 2.472c-0 0.008-0.001 0.017-0.001 0.027 0 0.204 0.13 0.377 0.312 0.442l0.003 0.001 2.339 0.813c0.165 0.058 0.282 0.213 0.282 0.396 0 0.067-0.016 0.13-0.043 0.185l0.001-0.002-1.079 2.229c-0.030 0.060-0.047 0.13-0.047 0.204 0 0.139 0.061 0.264 0.157 0.35l0 0 1.675 1.491h-21.413c0.241-4.408 3.897-7.983 8.439-7.983h0.003c3.963 0 7.439 2.813 8.264 6.688 0.048 0.214 0.236 0.371 0.46 0.371 0.034 0 0.067-0.004 0.099-0.010l-0.003 0.001c0.214-0.047 0.371-0.234 0.371-0.459 0-0.034-0.004-0.068-0.011-0.1l0.001 0.003v-0.001c-0.906-4.251-4.688-7.43-9.184-7.43-5.012 0-9.134 3.952-9.378 8.921h-3.597l1.675-1.491zM31.531 20.219c-0.259 0-0.469 0.21-0.469 0.469v0c-0 0.259-0.21 0.468-0.469 0.469h-29.188c-0.259-0-0.468-0.21-0.469-0.469v-0c0-0.259-0.21-0.469-0.469-0.469s-0.469 0.21-0.469 0.469v0c0.001 0.776 0.63 1.405 1.406 1.406h3.604l0.667 0.667-0.132 2.262c-0.001 0.023-0.002 0.051-0.002 0.078 0 0.75 0.608 1.357 1.357 1.357 0.027 0 0.055-0.001 0.082-0.002l-0.004 0 2.119-0.123 0.697 2.004c0.19 0.535 0.692 0.911 1.282 0.911 0.215 0 0.418-0.050 0.599-0.139l-0.008 0.004 1.91-0.925 1.411 1.585c0.25 0.279 0.611 0.454 1.013 0.454s0.764-0.175 1.012-0.453l0.001-0.001 1.41-1.585 1.91 0.925c0.173 0.085 0.376 0.135 0.591 0.135 0.59 0 1.091-0.376 1.279-0.901l0.003-0.009 0.697-2.005 2.119 0.123c0.023 0.001 0.050 0.002 0.078 0.002 0.75 0 1.357-0.608 1.357-1.357 0-0.027-0.001-0.055-0.002-0.082l0 0.004-0.131-2.262 0.667-0.667h3.604c0.776-0.001 1.405-0.63 1.406-1.406v-0c0-0.259-0.21-0.469-0.469-0.469v0zM25.375 22.605l0.144 2.472c0 0.008 0.001 0.016 0.001 0.025 0 0.231-0.187 0.418-0.418 0.418-0.009 0-0.018-0-0.027-0.001l0.001 0-2.472-0.144c-0.008-0-0.018-0.001-0.027-0.001-0.204 0-0.377 0.13-0.442 0.312l-0.001 0.003-0.813 2.339c-0.058 0.165-0.213 0.282-0.396 0.282-0.067 0-0.13-0.016-0.185-0.043l0.002 0.001-2.229-1.079c-0.060-0.030-0.13-0.047-0.204-0.047-0.139 0-0.264 0.061-0.35 0.157l-0 0-1.646 1.85c-0.077 0.087-0.189 0.141-0.313 0.141s-0.236-0.054-0.313-0.14l-0-0-1.646-1.85c-0.086-0.097-0.211-0.157-0.35-0.157-0.074 0-0.145 0.017-0.207 0.048l0.003-0.001-2.229 1.079c-0.053 0.027-0.116 0.042-0.183 0.042-0.182 0-0.337-0.116-0.395-0.279l-0.001-0.003-0.813-2.339c-0.065-0.185-0.238-0.315-0.442-0.315-0.010 0-0.020 0-0.029 0.001l0.001-0-2.472 0.144c-0.008 0-0.016 0.001-0.025 0.001-0.231 0-0.418-0.187-0.418-0.418 0-0.009 0-0.018 0.001-0.027l-0 0.001 0.144-2.472c0-0.008 0.001-0.018 0.001-0.027 0-0.13-0.053-0.247-0.138-0.332v0l-0.152-0.152h15.514c-1.511 1.459-3.571 2.358-5.841 2.358-0.003 0-0.006 0-0.009 0h0c-0.009 0-0.019 0-0.029 0-2.004 0-3.844-0.706-5.283-1.883l0.015 0.012c-0.081-0.067-0.185-0.108-0.3-0.108-0.259 0-0.469 0.21-0.469 0.469 0 0.15 0.070 0.283 0.179 0.369l0.001 0.001c1.591 1.294 3.642 2.079 5.876 2.079 0.003 0 0.006 0 0.008 0h-0l0.001-0.003 0.001 0.003c2.766 0 5.353-1.211 7.136-3.296h2.527l-0.152 0.153c-0.084 0.085-0.137 0.202-0.137 0.331 0 0.010 0 0.019 0.001 0.029l-0-0.001z"></path>
<path fill="#ff5c00" style="fill: var(--color6, #ff5c00)" d="M2.741 17.876h0.344c0.259 0 0.469-0.21 0.469-0.469s-0.21-0.469-0.469-0.469v0h-0.344c-1.035 0.001-1.874 0.84-1.875 1.875v0c0 1.034 0.841 1.875 1.875 1.875 0.002 0 0.003 0 0.005 0 0.516 0 0.983-0.21 1.32-0.549l0-0c0.339-0.337 0.549-0.805 0.549-1.321 0-0.002 0-0.003 0-0.005v0c0-0.259-0.21-0.469-0.469-0.469v0h-0.812c-0.259 0-0.469 0.21-0.469 0.469s0.21 0.469 0.469 0.469h0.218c-0.166 0.282-0.467 0.468-0.812 0.469h-0c-0.517-0.001-0.936-0.42-0.937-0.937v-0c0-0.517 0.42-0.937 0.937-0.937zM5.458 16.938c-0.259 0-0.469 0.21-0.469 0.469v0 1.697c0 0.874 0.715 1.584 1.594 1.584s1.593-0.71 1.593-1.584v-1.697c0-0.259-0.21-0.469-0.469-0.469s-0.469 0.21-0.469 0.469v0 1.697c0 0.357-0.294 0.647-0.656 0.647s-0.656-0.29-0.656-0.647v-1.697c0-0.259-0.21-0.469-0.469-0.469v0zM9.927 16.938c-0 0-0 0-0 0-0.2 0-0.37 0.125-0.438 0.301l-0.001 0.003-1.055 2.812c-0.019 0.049-0.030 0.105-0.030 0.164 0 0.259 0.21 0.469 0.469 0.469 0.2 0 0.37-0.125 0.438-0.301l0.001-0.003 0.062-0.164h1.108l0.062 0.164c0.069 0.179 0.239 0.304 0.439 0.304 0.259 0 0.469-0.21 0.469-0.469 0-0.059-0.011-0.116-0.031-0.168l0.001 0.003-1.055-2.812c-0.069-0.179-0.239-0.304-0.439-0.304v0zM9.725 19.281l0.203-0.54 0.202 0.54h-0.405zM14.763 18.344c0-0.001 0-0.002 0-0.002 0-0.773-0.625-1.4-1.398-1.404h-0.915c-0.259 0-0.469 0.21-0.469 0.469v0 2.812c0 0.259 0.21 0.469 0.469 0.469s0.469-0.21 0.469-0.469v0-0.469h0.25l0.793 0.799c0.085 0.086 0.202 0.139 0.332 0.139 0.129 0 0.245-0.052 0.33-0.136v0c0.086-0.085 0.139-0.203 0.139-0.333 0-0.129-0.052-0.245-0.136-0.33l0 0-0.42-0.423c0.339-0.26 0.556-0.665 0.556-1.121 0-0 0-0 0-0.001v0zM13.365 18.813h-0.445v-0.937h0.445c0.254 0 0.461 0.21 0.461 0.469s-0.207 0.469-0.461 0.469zM16.754 16.938c-0.2 0-0.37 0.125-0.438 0.301l-0.001 0.003-1.055 2.812c-0.019 0.049-0.030 0.105-0.030 0.164 0 0.259 0.21 0.469 0.469 0.469 0.2 0 0.37-0.125 0.438-0.301l0.001-0.003 0.062-0.164h1.108l0.062 0.164c0.065 0.186 0.239 0.318 0.444 0.318 0.259 0 0.469-0.21 0.469-0.469 0-0.064-0.013-0.125-0.036-0.181l0.001 0.003-1.054-2.812c-0.069-0.179-0.239-0.304-0.439-0.304-0 0-0 0-0 0v0zM16.552 19.281l0.202-0.54 0.202 0.54h-0.405zM20.809 17.407v1.38l-1.216-1.658c-0.086-0.117-0.223-0.192-0.378-0.192-0.259 0-0.469 0.21-0.469 0.469 0 0 0 0 0 0v0 2.812c0 0.259 0.21 0.469 0.469 0.469s0.469-0.21 0.469-0.469v0-1.38l1.216 1.658c0.265 0.362 0.847 0.178 0.847-0.277v-2.812c0-0.259-0.21-0.469-0.469-0.469s-0.469 0.21-0.469 0.469v0zM23.545 20.687c0.259 0 0.469-0.21 0.469-0.469v0-2.343h0.594c0.259 0 0.469-0.21 0.469-0.469s-0.21-0.469-0.469-0.469h-2.125c-0.259 0-0.469 0.21-0.469 0.469s0.21 0.469 0.469 0.469h0.594v2.343c0 0.259 0.21 0.469 0.469 0.469zM27.257 17.876c0.259 0 0.469-0.21 0.469-0.469s-0.21-0.469-0.469-0.469v0h-1.438c-0.259 0-0.468 0.21-0.468 0.469v0 2.812c0 0.259 0.21 0.469 0.469 0.469h1.438c0.259 0 0.469-0.21 0.469-0.469s-0.21-0.469-0.469-0.469h-0.969v-0.469h0.594c0.259 0 0.469-0.21 0.469-0.469s-0.21-0.469-0.469-0.469h-0.594v-0.469h0.968zM30.165 17.876c0.259 0 0.469-0.21 0.469-0.469s-0.21-0.469-0.469-0.469v0h-1.438c-0.259 0-0.469 0.21-0.469 0.469v0 2.812c0 0.259 0.21 0.469 0.469 0.469h1.438c0.259 0 0.469-0.21 0.469-0.469s-0.21-0.469-0.469-0.469h-0.969v-0.469h0.594c0.259 0 0.469-0.21 0.469-0.469s-0.21-0.469-0.469-0.469h-0.594v-0.469h0.969z"></path>
</symbol>
<symbol id="icon-consult-talk" viewBox="0 0 32 32">
<path fill="#ff9811" style="fill: var(--color27, #ff9811)" d="M28.739 21.918c-0.15 0.519-0.339 0.969-0.573 1.391l0.017-0.034 1.426 1.906-2.207 2.214-1.901-1.431c-0.387 0.218-0.836 0.409-1.307 0.548l-0.046 0.012-0.338 2.366h-3.124l-0.338-2.366c-0.517-0.15-0.967-0.341-1.387-0.576l0.033 0.017-1.9 1.431-2.208-2.214 1.427-1.906c-0.218-0.388-0.408-0.839-0.546-1.311l-0.012-0.047-2.358-0.339v-3.134l2.359-0.339c0.149-0.519 0.339-0.969 0.573-1.391l-0.017 0.034-1.426-1.906 2.208-2.215 1.899 1.431c0.387-0.218 0.836-0.408 1.307-0.547l0.047-0.012 0.339-2.366h3.124l0.338 2.366c0.518 0.151 0.967 0.341 1.387 0.576l-0.033-0.017 1.432-1.076 0.469-0.355 2.207 2.215-1.426 1.906c0.217 0.388 0.407 0.839 0.545 1.311l0.012 0.047 2.359 0.339v3.134l-2.358 0.339z"></path>
<path fill="#ffd422" style="fill: var(--color28, #ffd422)" d="M24.851 16.753c-0.573-0.465-1.284-0.783-2.062-0.885l-0.021-0.002c-0.156-0.021-0.336-0.032-0.519-0.032-1.152 0-2.194 0.468-2.947 1.225l-0 0c-0.753 0.757-1.219 1.8-1.219 2.952 0 0.001 0 0.001 0 0.002v-0c0.004 1.451 0.743 2.728 1.864 3.479l0.015 0.010c0.643 0.432 1.434 0.689 2.286 0.69h0c0.35-0.001 0.701-0.045 1.042-0.131 0.777-0.206 1.442-0.608 1.962-1.151l0.001-0.002c0.718-0.75 1.16-1.769 1.16-2.891 0-0.503-0.089-0.985-0.251-1.431l0.009 0.029c-0.271-0.75-0.726-1.379-1.312-1.853l-0.008-0.006z"></path>
<path fill="#c6c5ca" style="fill: var(--color29, #c6c5ca)" d="M24.85 13.746c-0.184-0.080-0.417-0.163-0.656-0.234l-0.046-0.012-0.338-2.366h-1.042v-4.314c-0.95-0.668-1.563-1.759-1.563-2.994 0-0.107 0.005-0.214 0.014-0.319l-0.001 0.014c0.113-1.326 0.918-2.44 2.048-2.989l0.022-0.010v3.301l1.562 0.522 1.562-0.522v-3.301c0.578 0.274 1.072 0.695 1.435 1.221 0.405 0.581 0.648 1.301 0.648 2.078 0 1.236-0.613 2.328-1.55 2.991l-0.012 0.008v6.162l-1.432 1.076c-0.173-0.098-0.386-0.203-0.606-0.296l-0.044-0.017z"></path>
<path fill="#ff9811" style="fill: var(--color27, #ff9811)" d="M24.85 13.745v3.008c-0.573-0.465-1.283-0.783-2.061-0.885l-0.021-0.002v-4.731h1.042l0.338 2.366c0.238 0.069 0.472 0.151 0.702 0.245z"></path>
<path fill="#ee8700" style="fill: var(--color30, #ee8700)" d="M17.563 10.089h-1.042c-0.183 0-0.362 0.050-0.52 0.141v2.993c0 0.125-0.005 0.251-0.015 0.37 0.153 0.095 0.338 0.151 0.536 0.152h1.041c0.249 0.002 0.491-0.089 0.677-0.256 0.224-0.19 0.365-0.472 0.365-0.787 0-0.001 0-0.001 0-0.002v0-1.566c0 0 0 0 0 0 0-0.576-0.466-1.043-1.041-1.044h-0z"></path>
<path fill="#3d9ae2" style="fill: var(--color31, #3d9ae2)" d="M19.962 23.5c-0.588-0.988-1.466-1.749-2.517-2.176l-0.035-0.012-4.535-1.822c0 0.554-0.219 1.086-0.61 1.477-0.377 0.378-0.897 0.612-1.473 0.612s-1.096-0.234-1.473-0.611l-0-0c-0.377-0.378-0.61-0.9-0.61-1.476 0-0 0-0.001 0-0.001v0l-4.536 1.822c-0.986 0.401-1.797 1.063-2.369 1.901l-0.012 0.018c-0.56 0.82-0.894 1.832-0.894 2.923 0 0.002 0 0.003 0 0.005v-0 4.82h19.784v-4.82c0-0.001 0-0.002 0-0.004 0-0.979-0.269-1.895-0.737-2.678l0.013 0.024z"></path>
<path fill="#ffc477" style="fill: var(--color32, #ffc477)" d="M12.876 18.006v1.483c0 0.554-0.22 1.086-0.61 1.477-0.377 0.378-0.897 0.612-1.473 0.612s-1.096-0.234-1.473-0.611l-0-0c-0.377-0.378-0.61-0.9-0.61-1.476 0-0 0-0.001 0-0.001v0-1.483c0.613 0.277 1.329 0.438 2.082 0.438s1.469-0.161 2.115-0.451l-0.033 0.013z"></path>
<path fill="#ee8700" style="fill: var(--color30, #ee8700)" d="M5.588 13.223c0 0.125 0.005 0.251 0.015 0.371-0.16 0.101-0.347 0.153-0.536 0.151h-1.041c-0.574-0.004-1.039-0.469-1.042-1.044v-1.568c0-0 0-0.001 0-0.001 0-0.576 0.466-1.042 1.041-1.043h1.041c0.183 0 0.363 0.049 0.521 0.14v2.993z"></path>
<path fill="#ffb655" style="fill: var(--color33, #ffb655)" d="M12.876 18.006v1.045c-0.613 0.277-1.329 0.439-2.083 0.439s-1.47-0.162-2.115-0.452l0.033 0.013v-1.044c0.613 0.277 1.329 0.439 2.082 0.439s1.469-0.161 2.115-0.452l-0.033 0.013z"></path>
<path fill="#57565c" style="fill: var(--color34, #57565c)" d="M16 10.23v0.381h-0.521c0 0 0 0 0 0-0.679 0-1.282-0.326-1.662-0.83l-0.004-0.005-0.937-1.253-1.749 1.405c-0.527 0.426-1.206 0.684-1.944 0.684-0.001 0-0.002 0-0.003 0h-3.592v-1.045c0-1.385 0.549-2.713 1.525-3.693 0.941-0.944 2.243-1.528 3.682-1.528s2.74 0.584 3.681 1.528l0 0c0.943 0.946 1.525 2.251 1.525 3.692 0 0 0 0.001 0 0.001v-0 0.663z"></path>
<path fill="#ffc477" style="fill: var(--color32, #ffc477)" d="M15.479 10.612c-0.679-0-1.283-0.326-1.662-0.83l-0.004-0.005-0.937-1.253-1.749 1.405c-0.527 0.426-1.206 0.684-1.944 0.684-0.001 0-0.002 0-0.003 0h-3.592v2.611c0 0.125 0.005 0.251 0.015 0.37 0.080 1.11 0.495 2.109 1.144 2.913l-0.008-0.010c0.959 1.192 2.417 1.948 4.051 1.948 0.587 0 1.151-0.097 1.677-0.277l-0.037 0.011c1.033-0.35 1.893-0.984 2.514-1.808l0.010-0.013c0.188-0.242 0.35-0.503 0.485-0.779 0.29-0.568 0.472-1.187 0.536-1.822v-0.005c0.005-0.052 0.011-0.104 0.011-0.157 0.011-0.12 0.015-0.245 0.015-0.37v-2.611h-0.52z"></path>
<path fill="#000" style="fill: var(--color1, #000)" d="M8.712 12.178h-1.042v1.044h1.042v-1.044zM13.918 12.178h-1.042v1.044h1.042v-1.044z"></path>
<path fill="#000" style="fill: var(--color1, #000)" d="M31.173 17.928l-2.034-0.291c-0.114-0.336-0.23-0.612-0.361-0.879l0.019 0.043 1.23-1.646c0.065-0.086 0.104-0.195 0.104-0.314 0-0.144-0.058-0.274-0.152-0.369l0 0-2.21-2.216c-0.082-0.082-0.191-0.136-0.313-0.148l-0.002-0v-5.027c0.956-0.772 1.562-1.943 1.562-3.257 0-0.001 0-0.002 0-0.003v0c0-0.008 0-0.017 0-0.026 0-0.82-0.238-1.583-0.649-2.227l0.010 0.017c-0.425-0.666-1.016-1.192-1.717-1.525l-0.025-0.011c-0.066-0.032-0.143-0.051-0.224-0.051-0.287 0-0.52 0.233-0.52 0.52 0 0.001 0 0.002 0 0.004v-0 2.924l-1.041 0.348-1.042-0.348v-2.925c-0.002-0.276-0.216-0.501-0.488-0.519l-0.002-0c-0.010-0.001-0.021-0.001-0.032-0.001-0.081 0-0.157 0.018-0.225 0.051l0.003-0.001c-0.725 0.344-1.316 0.87-1.731 1.519l-0.010 0.017c-0.402 0.627-0.64 1.392-0.64 2.213 0 0.008 0 0.016 0 0.024v-0.001c0.001 1.314 0.607 2.486 1.554 3.253l0.008 0.006v3.53h-1.562c-0 0-0 0-0 0-0.262 0-0.478 0.194-0.514 0.445l-0 0.003-0.338 2.365 1.031 0.148 0.273-1.916h2.222l0.273 1.916c0.030 0.204 0.175 0.368 0.366 0.426l0.004 0.001c0.434 0.126 0.853 0.299 1.25 0.516 0.073 0.041 0.159 0.065 0.252 0.065 0.117 0 0.226-0.039 0.313-0.105l-0.001 0.001 1.541-1.16 1.57 1.575-1.158 1.547c-0.065 0.086-0.104 0.195-0.104 0.313 0 0.092 0.024 0.179 0.065 0.254l-0.001-0.003c0.216 0.398 0.389 0.818 0.514 1.254 0.058 0.195 0.222 0.34 0.424 0.37l0.003 0 1.91 0.274v2.227l-1.911 0.274c-0.204 0.030-0.368 0.175-0.425 0.367l-0.001 0.004c-0.14 0.48-0.315 0.895-0.53 1.286l0.016-0.032c-0.040 0.073-0.064 0.159-0.064 0.251 0 0.118 0.039 0.227 0.105 0.315l-0.001-0.001 1.156 1.547-1.57 1.575-1.541-1.163c-0.086-0.065-0.195-0.104-0.312-0.104-0.092 0-0.178 0.024-0.253 0.065l0.003-0.001c-0.396 0.217-0.815 0.389-1.25 0.516-0.195 0.058-0.34 0.222-0.369 0.424l-0 0.003-0.271 1.918h-2.152v-2.208c0-0.552-0.079-1.101-0.234-1.63 0.399 0.122 0.858 0.192 1.333 0.192 0.605 0 1.184-0.114 1.716-0.321l-0.032 0.011c0.983-0.382 1.785-1.050 2.323-1.901l0.012-0.020c0.454-0.717 0.724-1.59 0.724-2.526 0-1.23-0.466-2.352-1.23-3.197l0.004 0.004c-0.869-0.962-2.122-1.565-3.515-1.565-0.769 0-1.495 0.183-2.137 0.509l0.027-0.012c-0.93 0.47-1.668 1.208-2.125 2.112l-0.012 0.027c-0.314 0.618-0.498 1.348-0.498 2.121 0 0.311 0.030 0.614 0.086 0.908l-0.005-0.030c-0.013-0.005-0.024-0.011-0.037-0.016l-4.21-1.689v-0.803c0.714-0.371 1.316-0.859 1.804-1.446l0.008-0.009h1.312c0.414 0 0.812-0.165 1.105-0.459s0.457-0.692 0.457-1.108v-1.141c0.611-0.221 1.041-0.795 1.042-1.47v-1.567c-0.003-0.674-0.432-1.248-1.031-1.467l-0.011-0.004v-0.619c0-0 0-0.001 0-0.002 0-2.017-0.816-3.844-2.135-5.168l0 0c-1.318-1.322-3.14-2.14-5.153-2.141h-0c-2.014 0-3.837 0.819-5.154 2.141l-0 0c-1.319 1.324-2.135 3.151-2.135 5.168 0 0 0 0.001 0 0.001v-0 0.619c-0.611 0.221-1.041 0.795-1.042 1.47v1.567c0 0.416 0.165 0.814 0.457 1.108s0.691 0.459 1.105 0.459h1.042c0.034 0 0.066-0.005 0.099-0.008 0.172 0.912 0.537 1.717 1.051 2.404l-0.011-0.015c0.524 0.701 1.188 1.269 1.953 1.669l0.032 0.015v0.803l-4.21 1.689c-1.086 0.44-1.979 1.168-2.607 2.091l-0.013 0.020c-0.614 0.899-0.98 2.009-0.98 3.204 0 0.006 0 0.012 0 0.019v-0.001 4.82c0 0.288 0.233 0.521 0.52 0.523h19.785c0 0 0 0 0.001 0 0.287 0 0.52-0.233 0.52-0.52 0-0.001 0-0.002 0-0.003v0-1.566h2.603c0 0 0.001 0 0.001 0 0.262 0 0.478-0.194 0.514-0.445l0-0.003 0.29-2.040c0.334-0.114 0.61-0.23 0.876-0.362l-0.043 0.019 1.641 1.234c0.086 0.065 0.194 0.104 0.312 0.104 0.144 0 0.274-0.058 0.368-0.153l0-0 2.21-2.216c0.094-0.095 0.153-0.225 0.153-0.369 0-0.118-0.039-0.227-0.105-0.315l0.001 0.001-1.23-1.646c0.112-0.224 0.228-0.5 0.327-0.784l0.016-0.052 2.034-0.292c0.253-0.038 0.446-0.254 0.446-0.515 0-0 0-0.001 0-0.001v0-3.134c-0.001-0.261-0.193-0.478-0.444-0.516l-0.003-0zM25.445 13.443c-0.024-0.012-0.052-0.020-0.076-0.031v-6.456h-1.039v4.141l-0.005-0.038c-0.038-0.254-0.254-0.447-0.516-0.447h-0.52v-3.793c-0.001-0.177-0.088-0.332-0.222-0.427l-0.002-0.001c-0.764-0.538-1.273-1.395-1.333-2.373l-0-0.009c-0.004-0.056-0.006-0.122-0.006-0.189 0-0.927 0.401-1.759 1.039-2.335l0.003-0.002v2.339c0 0.229 0.148 0.423 0.353 0.494l0.004 0.001 1.562 0.522c0.107 0.036 0.222 0.036 0.329 0l1.562-0.522c0.209-0.071 0.356-0.266 0.356-0.494 0-0 0-0.001 0-0.001v0-2.339c0.641 0.576 1.043 1.408 1.043 2.334 0 0.068-0.002 0.135-0.006 0.202l0-0.009c-0.062 0.987-0.571 1.843-1.324 2.376l-0.010 0.007c-0.135 0.095-0.223 0.251-0.223 0.427v5.898l-0.968 0.725zM18.603 20.011c-0-0.008-0-0.017-0-0.026 0-0.844 0.283-1.622 0.76-2.243l-0.006 0.009c0.675-0.883 1.73-1.447 2.915-1.447 0.517 0 1.009 0.107 1.455 0.301l-0.024-0.009c0.759 0.328 1.369 0.88 1.761 1.571l0.009 0.018c0.295 0.519 0.469 1.14 0.469 1.801 0 1.044-0.434 1.988-1.131 2.659l-0.001 0.001c-0.657 0.631-1.552 1.020-2.537 1.020-0.717 0-1.385-0.206-1.95-0.561l0.015 0.009c-0.37-0.588-0.822-1.085-1.347-1.492l-0.013-0.010c-0.237-0.465-0.376-1.015-0.376-1.596 0-0.001 0-0.003 0-0.004v0zM16.52 15.834h-0.632c0.254-0.495 0.434-1.026 0.534-1.574 0.033 0 0.066 0.008 0.099 0.008h0.52v1.044c0 0 0 0 0 0 0 0.288-0.233 0.522-0.521 0.523h-0zM15.48 10.089c-0.509-0.001-0.961-0.245-1.247-0.622l-0.003-0.004-0.937-1.253c-0.096-0.127-0.247-0.208-0.417-0.208-0.123 0-0.237 0.043-0.326 0.114l0.001-0.001-1.747 1.4c-0.441 0.356-1.007 0.572-1.624 0.574h-3.072v-0.522c0-1.246 0.494-2.442 1.372-3.323 0.847-0.85 2.019-1.375 3.313-1.375s2.466 0.526 3.313 1.375l0 0c0.848 0.851 1.373 2.026 1.373 3.323 0 0 0 0 0 0v-0 0.522zM18.082 12.7c0 0 0 0 0 0 0 0.288-0.233 0.521-0.52 0.523h-1.042v-2.611h1.042c0 0 0 0 0.001 0 0.287 0 0.52 0.233 0.52 0.52 0 0.001 0 0.002 0 0.002v-0 1.566zM10.794 2.778c1.725 0.003 3.286 0.705 4.415 1.838l0 0c1.131 1.135 1.831 2.7 1.832 4.429v0.523h-0.521c0-1.524-0.603-2.985-1.677-4.062-1.035-1.039-2.467-1.682-4.049-1.682h-0c-1.582 0-3.014 0.643-4.049 1.682l-0 0c-1.037 1.040-1.678 2.476-1.678 4.061 0 0.001 0 0.001 0 0.002v-0h-0.52v-0.523c0.001-1.729 0.7-3.294 1.831-4.429l-0 0c1.129-1.133 2.69-1.835 4.416-1.838h0zM4.025 13.223c-0 0-0 0-0.001 0-0.287 0-0.52-0.233-0.52-0.52 0-0.001 0-0.002 0-0.003v0-1.566c0.001-0.287 0.233-0.52 0.52-0.522h1.042v2.611h-1.042zM6.108 13.223v-2.089h3.071c0.865-0.001 1.659-0.303 2.284-0.806l-0.007 0.005 1.328-1.067 0.613 0.823c0.481 0.635 1.234 1.041 2.083 1.045h0.001v2.089c0 0.001 0 0.003 0 0.005 0 0.972-0.296 1.875-0.803 2.623l0.011-0.016h-3.893v1.044h2.938c-0.796 0.65-1.824 1.043-2.943 1.043-1.661 0-3.12-0.867-3.949-2.173l-0.011-0.019c-0.452-0.71-0.72-1.574-0.72-2.502 0-0.002 0-0.003 0-0.005v0zM10.794 18.968c0.557-0.002 1.094-0.083 1.602-0.233l-0.040 0.010v0.745c0 0 0 0 0 0.001 0 0.432-0.175 0.823-0.457 1.107l0-0c-0.282 0.283-0.673 0.459-1.105 0.459s-0.822-0.175-1.105-0.459l-0-0c-0.283-0.284-0.457-0.675-0.457-1.107 0-0 0-0 0-0.001v0-0.744c0.507 0.146 1.033 0.221 1.562 0.222zM20.165 30.456h-3.124v-5.745h-1.042v5.745h-10.413v-5.745h-1.041v5.745h-3.124v-4.297c-0-0.005-0-0.011-0-0.017 0-0.978 0.3-1.887 0.812-2.638l-0.010 0.016c0.525-0.771 1.255-1.367 2.113-1.715l0.031-0.011 3.938-1.579c0.154 0.543 0.48 1.021 0.93 1.362 0.428 0.327 0.971 0.524 1.56 0.524 1.178 0 2.172-0.789 2.482-1.868l0.004-0.018 3.938 1.579c0.889 0.36 1.619 0.956 2.134 1.71l0.010 0.016c0.502 0.736 0.802 1.644 0.802 2.623 0 0.005 0 0.011-0 0.016v-0.001 4.297z"></path>
<path fill="#000" style="fill: var(--color1, #000)" d="M22.768 12.701h-1.041v1.044h1.041v-1.044zM22.768 26.278h-1.041v1.045h1.041v-1.044zM27.034 24.073l-0.737 0.739 0.737 0.739 0.737-0.739-0.737-0.739zM29.537 19.49h-1.042v1.044h1.042v-1.044zM27.034 14.472l-0.737 0.739 0.737 0.739 0.737-0.739-0.737-0.739z"></path>
</symbol>
<symbol id="icon-clock" viewBox="0 0 32 32">
<path fill="#ff5876" style="fill: var(--color35, #ff5876)" d="M32 16c0-0.194-0.003-0.388-0.011-0.58-0.305-8.567-7.347-15.42-15.989-15.42s-15.684 6.852-15.989 15.42c-0.007 0.192-0.011 0.386-0.011 0.58 0 8.836 8.219 15.42 16 15.42 7.922 0 16-6.583 16-15.42z"></path>
<path fill="#e6485d" style="fill: var(--color36, #e6485d)" d="M16 30.838c-8.642 0-15.682-6.851-15.989-15.419-0.006 0.192-0.011 0.386-0.011 0.58 0 8.836 7.164 16 16 16s16-7.164 16-16c0-0.194-0.004-0.388-0.011-0.58-0.307 8.567-7.348 15.418-15.989 15.418z"></path>
<path fill="#e4eef9" style="fill: var(--color37, #e4eef9)" d="M29.339 15.42c-0.304-7.104-6.16-12.771-13.339-12.771s-13.035 5.666-13.339 12.771c-0.009 0.192 0 13.083 13.339 13.083s13.347-12.891 13.339-13.083z"></path>
<path fill="#d5e0f2" style="fill: var(--color38, #d5e0f2)" d="M16 28.19c-7.179 0-13.035-5.666-13.338-12.77-0.009 0.192-0.014 0.386-0.014 0.58 0 7.374 5.978 13.351 13.351 13.351s13.351-5.978 13.351-13.351c0-0.194-0.005-0.388-0.014-0.58-0.303 7.104-6.159 12.77-13.338 12.77z"></path>
<path fill="#405b6c" style="fill: var(--color39, #405b6c)" d="M20.85 11.315c-0.175-0.172-0.415-0.279-0.679-0.279-0.27 0-0.514 0.111-0.69 0.289l-0 0-2.27 2.302 0.227 1.095 1.061 0.353 2.359-2.393c0.173-0.175 0.279-0.415 0.279-0.68 0-0.269-0.11-0.513-0.288-0.688l-0-0zM14.63 13.715l-5.151-4.589c-0.171-0.157-0.4-0.253-0.652-0.253-0.534 0-0.967 0.433-0.967 0.967 0 0.291 0.128 0.551 0.331 0.729l0.001 0.001 5.252 4.681 1.094-0.365 0.092-1.171z"></path>
<path fill="#86dcff" style="fill: var(--color40, #86dcff)" d="M22.852 22.24c-0.119-0-0.227-0.043-0.311-0.115l0.001 0.001-6.13-5.148c-0.111-0.090-0.181-0.225-0.181-0.377 0-0.267 0.217-0.484 0.484-0.484 0.123 0 0.235 0.046 0.32 0.121l-0.001-0 6.129 5.149c0.105 0.089 0.171 0.222 0.171 0.369 0 0.267-0.216 0.483-0.482 0.484h-0z"></path>
<path fill="#2d4456" style="fill: var(--color41, #2d4456)" d="M13.444 15.251l0.903 0.805 1.161-0.395-0.063-1.22-0.815-0.725c-0.567 0.34-0.996 0.885-1.186 1.535zM17.211 13.628l-0.768 0.779v1.53h1.21l0.847-0.86c-0.24-0.634-0.695-1.141-1.274-1.442l-0.015-0.007z"></path>
<path fill="#ff5876" style="fill: var(--color35, #ff5876)" d="M17.549 15.42c-0.242-0.632-0.844-1.073-1.549-1.073s-1.307 0.441-1.545 1.061l-0.004 0.011c-0.068 0.18-0.004 1.653 1.549 1.653s1.617-1.473 1.549-1.653z"></path>
<path fill="#e6485d" style="fill: var(--color36, #e6485d)" d="M16 16.493c-0 0-0 0-0.001 0-0.705 0-1.306-0.441-1.544-1.062l-0.004-0.011c-0.066 0.172-0.105 0.371-0.105 0.579 0 0.913 0.74 1.653 1.653 1.653s1.653-0.74 1.653-1.653c0-0.208-0.038-0.407-0.108-0.59l0.004 0.011c-0.242 0.632-0.843 1.073-1.548 1.073-0 0-0 0-0.001 0h0z"></path>
<path fill="#405b6c" style="fill: var(--color39, #405b6c)" d="M16.484 5.849v-1.502c-0.012-0.258-0.225-0.463-0.485-0.463s-0.472 0.205-0.485 0.461l-0 0.001v1.502c0 0.268 0.217 0.485 0.485 0.485s0.485-0.217 0.485-0.485v0zM15.515 26.151v1.502c0 0.268 0.217 0.485 0.485 0.485s0.485-0.217 0.485-0.485v-1.502c0-0.268-0.217-0.485-0.485-0.485s-0.485 0.217-0.485 0.485v0zM27.653 16.484c0.258-0.012 0.463-0.225 0.463-0.485s-0.204-0.472-0.461-0.485l-0.001-0h-1.502c-0.268 0-0.485 0.217-0.485 0.485s0.217 0.485 0.485 0.485h1.502zM4.347 15.516c-0.268 0-0.485 0.217-0.485 0.485s0.217 0.485 0.485 0.485h1.502c0.268 0 0.485-0.217 0.485-0.485s-0.217-0.485-0.485-0.485v0h-1.502z"></path>
</symbol>
<symbol id="icon-ancient-scroll" viewBox="0 0 32 32">
<path fill="#ff5c00" style="fill: var(--color6, #ff5c00)" d="M28.625 23.82v-13.59c0-0.2-0.096-0.388-0.258-0.506l-1.543-1.122 1.215-0.759c0.178-0.112 0.294-0.308 0.294-0.53 0-0.203-0.096-0.383-0.246-0.497l-0.002-0.001-1.127-0.854v-0.397h1.042c0.345 0 0.625-0.28 0.625-0.625v-1.25c-0.002-2.036-1.652-3.685-3.687-3.687h-21.374c-0.985 0-1.899 0.486-2.575 1.369-0.637 0.833-0.989 1.932-0.989 3.093 0 2.089 1.367 3.788 3.047 3.788h3.458v9.906c0 0.212 0.107 0.409 0.285 0.524l1.225 0.795-1.301 1.163c-0.133 0.119-0.209 0.288-0.209 0.467v5.416c0 0.034 0.003 0.067 0.009 0.099-0.005 0.030-0.008 0.064-0.009 0.099v0c0 1.59 0.411 2.928 1.187 3.87 0.75 0.909 1.817 1.411 3.004 1.411h17.179c2.276 0 4.125-1.851 4.125-4.125 0-2.019-1.458-3.702-3.375-4.055zM5.13 7c0.184-0.347 0.288-0.747 0.288-1.178 0-1.441-0.933-2.447-2.27-2.447-0.345 0-0.625 0.28-0.625 0.625s0.28 0.625 0.625 0.625v0c0.639 0 1.020 0.448 1.020 1.197 0 0.765-0.578 1.178-1.121 1.178-0.974 0-1.797-1.162-1.797-2.538 0-1.771 1.038-3.212 2.315-3.212 0.884 0 1.574 0.275 2.053 0.816 0.589 0.667 0.888 1.749 0.888 3.215v1.719h-1.375zM8.657 29.794c-0.59-0.715-0.901-1.779-0.901-3.075-0-0.035-0.004-0.070-0.010-0.103l0.001 0.004c0.005-0.032 0.009-0.065 0.009-0.099v-5.137l1.703-1.522c0.129-0.115 0.209-0.281 0.209-0.466 0-0.219-0.113-0.411-0.283-0.523l-0.002-0.001-1.627-1.055v-12.535c0-1.773-0.402-3.129-1.192-4.031h18.374c1.344 0 2.437 1.093 2.437 2.437v0.625h-1.042c-0.345 0-0.625 0.28-0.625 0.625v1.333c0 0.196 0.092 0.38 0.248 0.498l0.652 0.494-1.231 0.77c-0.177 0.112-0.293 0.308-0.293 0.53 0 0.207 0.101 0.39 0.255 0.504l0.002 0.001 2.034 1.479v13.203h-15.89c-0.031 0-0.061 0.003-0.091 0.007-0.054-0.004-0.117-0.007-0.181-0.007h-0.001c-1.33 0-2.371 1.067-2.371 2.428 0 1.441 0.933 2.447 2.27 2.447 0.345 0 0.625-0.28 0.625-0.625s-0.28-0.625-0.625-0.625v0c-0.639 0-1.020-0.448-1.020-1.197 0-0.765 0.578-1.178 1.121-1.178 0.974 0 1.797 1.162 1.797 2.538 0 1.771-1.038 3.212-2.314 3.212-0.818 0-1.524-0.331-2.039-0.956zM27.875 30.75h-14.701c0.032-0.039 0.065-0.078 0.096-0.119 0.599-0.782 0.945-1.798 0.986-2.881h9.744c0.005 0 0.012 0 0.018 0 0.345 0 0.625-0.28 0.625-0.625s-0.28-0.625-0.625-0.625c-0.006 0-0.013 0-0.019 0l0.001-0h-9.858c-0.13-0.572-0.362-1.074-0.678-1.512l0.008 0.012h14.403c1.587 0.002 2.873 1.288 2.875 2.874v0c-0.002 1.587-1.288 2.873-2.874 2.875h-0z"></path>
<path fill="#ff5c00" style="fill: var(--color6, #ff5c00)" d="M11.835 6.125c0.165 0 0.325-0.067 0.442-0.183s0.183-0.277 0.183-0.442c0-0.164-0.067-0.325-0.183-0.442-0.114-0.113-0.27-0.182-0.442-0.183h-0c-0.165 0-0.325 0.067-0.442 0.183s-0.183 0.277-0.183 0.442c0 0.164 0.067 0.325 0.183 0.442s0.277 0.183 0.442 0.183zM14.5 6.125h9.022c0.005 0 0.012 0 0.018 0 0.345 0 0.625-0.28 0.625-0.625s-0.28-0.625-0.625-0.625c-0.006 0-0.013 0-0.019 0l0.001-0h-9.022c-0.005-0-0.012-0-0.018-0-0.345 0-0.625 0.28-0.625 0.625s0.28 0.625 0.625 0.625c0.006 0 0.013-0 0.019-0l-0.001 0zM11.835 9.625h11.687c0.345 0 0.625-0.28 0.625-0.625s-0.28-0.625-0.625-0.625h-11.687c-0.345 0-0.625 0.28-0.625 0.625s0.28 0.625 0.625 0.625v0zM11.835 13.125h11.687c0.345 0 0.625-0.28 0.625-0.625s-0.28-0.625-0.625-0.625h-11.687c-0.337 0.010-0.607 0.286-0.607 0.625s0.27 0.615 0.606 0.625l0.001 0zM11.835 16.625h11.687c0.345 0 0.625-0.28 0.625-0.625s-0.28-0.625-0.625-0.625h-11.687c-0.345 0-0.625 0.28-0.625 0.625s0.28 0.625 0.625 0.625v0zM11.835 20.125h11.687c0.005 0 0.012 0 0.018 0 0.345 0 0.625-0.28 0.625-0.625s-0.28-0.625-0.625-0.625c-0.006 0-0.013 0-0.019 0l0.001-0h-11.687c-0.337 0.010-0.607 0.286-0.607 0.625s0.27 0.615 0.606 0.625l0.001 0zM26.429 26.5c-0.165 0-0.326 0.067-0.442 0.183s-0.183 0.277-0.183 0.442c0 0.164 0.067 0.326 0.183 0.442s0.277 0.183 0.442 0.183c0.164 0 0.325-0.067 0.442-0.183 0.113-0.113 0.183-0.27 0.183-0.442v-0c0-0.164-0.067-0.325-0.183-0.442-0.113-0.113-0.269-0.182-0.442-0.183h-0z"></path>
</symbol>
<symbol id="icon-minutes" viewBox="0 0 32 32">
<path fill="#ff5c00" style="fill: var(--color6, #ff5c00)" d="M16 0c-8.823 0-16 7.178-16 16s7.177 16 16 16 16-7.177 16-16c0-8.822-7.177-16-16-16zM16 30.836c-8.18 0-14.836-6.656-14.836-14.836s6.656-14.836 14.836-14.836c8.181 0 14.836 6.655 14.836 14.836s-6.655 14.836-14.836 14.836z"></path>
<path fill="#ff5c00" style="fill: var(--color6, #ff5c00)" d="M16 3.767c-6.615 0-12.006 5.281-12.213 11.847-0.006 0.033-0.019 0.062-0.019 0.097 0 0.020 0.009 0.038 0.012 0.058-0.002 0.077-0.012 0.153-0.012 0.231 0 6.745 5.487 12.233 12.233 12.233s12.232-5.488 12.232-12.233-5.487-12.233-12.233-12.233zM24.055 23.568l-1.405-1.36c-0.106-0.108-0.253-0.175-0.416-0.175-0.321 0-0.582 0.261-0.582 0.582 0 0.17 0.073 0.322 0.189 0.429l0 0 1.375 1.331c-1.774 1.539-4.065 2.523-6.582 2.662l-0.028 0.001v-1.776c0-0.321-0.261-0.582-0.582-0.582s-0.582 0.261-0.582 0.582v0 1.778c-2.557-0.129-4.862-1.111-6.659-2.666l0.014 0.012 1.111-1.149c0.108-0.106 0.175-0.253 0.175-0.416 0-0.321-0.261-0.582-0.582-0.582-0.17 0-0.322 0.073-0.429 0.188l-0 0-1.115 1.152c-1.807-1.916-2.936-4.47-3.011-7.287h2.057c0.321 0 0.582-0.261 0.582-0.582s-0.261-0.582-0.582-0.582v0h-2.028c0.185-2.325 1.066-4.414 2.433-6.092l-0.016 0.020 1.486 1.439c0.105 0.101 0.247 0.164 0.404 0.164 0.321 0 0.582-0.261 0.582-0.582 0-0.164-0.068-0.312-0.177-0.418l-0-0-1.52-1.472c1.874-1.879 4.421-3.085 7.249-3.227l0.026-0.001v1.731c0 0.321 0.26 0.582 0.582 0.582s0.582-0.26 0.582-0.582v0-1.728c2.591 0.143 4.921 1.162 6.721 2.763l-0.011-0.010-1.326 1.37c-0.108 0.106-0.175 0.253-0.175 0.416 0 0.321 0.261 0.582 0.582 0.582 0.17 0 0.322-0.073 0.429-0.188l0-0 1.319-1.363c1.625 1.77 2.681 4.063 2.88 6.598h-1.98c-0.321 0-0.582 0.261-0.582 0.582s0.261 0.582 0.582 0.582v0h2.009c-0.074 2.811-1.199 5.36-2.998 7.275z"></path>
<path fill="#ff5c00" style="fill: var(--color6, #ff5c00)" d="M18.146 13.007c-1.2 0.001-2.173 0.974-2.174 2.174v2.122c0.001 1.2 0.974 2.172 2.174 2.173h0c1.2-0.001 2.172-0.974 2.174-2.173v-2.122c-0.001-1.2-0.974-2.173-2.174-2.174h-0zM19.156 17.303c-0.001 0.557-0.452 1.009-1.010 1.010h-0c-0.557-0.001-1.009-0.452-1.010-1.010v-2.122c0-0.558 0.452-1.010 1.010-1.010h0c0.557 0.001 1.009 0.452 1.010 1.010v2.123zM13.37 15.13h-1.009v-0.436c0-1.059 0.862-1.92 1.92-1.92 0.321 0 0.582-0.261 0.582-0.582s-0.261-0.582-0.582-0.582v0c-1.7 0-3.084 1.384-3.084 3.084v2.61c0 0.001 0 0.002 0 0.003 0 1.199 0.972 2.17 2.17 2.17 0.002 0 0.005 0 0.007 0h-0c0.128 0 0.257-0.011 0.386-0.034 0.876-0.154 1.597-0.874 1.75-1.751 0.022-0.116 0.034-0.25 0.034-0.386 0-0.535-0.192-1.024-0.512-1.403l0.003 0.003c-0.4-0.476-0.996-0.777-1.663-0.777-0.001 0-0.002 0-0.003 0h0zM14.364 17.491c-0.070 0.397-0.409 0.736-0.806 0.806-0.056 0.011-0.121 0.017-0.187 0.017-0.558 0-1.011-0.453-1.011-1.011v0-1.010h1.010c0.3 0 0.582 0.131 0.774 0.361 0.196 0.233 0.273 0.53 0.22 0.837z"></path>
</symbol>
</defs>
</svg>
